STARTFONT 2.1
COMMENT 
COMMENT  Copyright 1984 1987 Adobe Systems, Inc.
COMMENT  Portions Copyright 1988 Digital Equipment Corporation
COMMENT 
COMMENT  Adobe is a registered trademark of Adobe Systems Inc.  Permission 
COMMENT  to use these trademarks is hereby granted only in association with the
COMMENT  images described in this file.
COMMENT 
COMMENT  Permission to use copy, modify, and distribute this software and
COMMENT  its documentation for any purpose and without fee is hereby granted
COMMENT  provided that the above copyright notices appear in all copies and
COMMENT  that both those copyright notices and this permission notice appear
COMMENT  in supporting documentation and that the names of Adobe Systems and
COMMENT  Digital Equipment Corporation not be used in advertising or
COMMENT  publicity pertaining to distribution of the software without
COMMENT  specific written prior permission.  Adobe Systems and Digital
COMMENT  Equipment Corporation make no representations about the suitability
COMMENT  of this software for any purpose.  It is provided "as is" without
COMMENT  express or implied warranty.
COMMENT 
COMMENT  ADOBE SYSTEMS AND DIGITAL EQUIPMENT CORPORATION DISCLAIM ALL
COMMENT  WARRANTIES WITH REGARD TO THIS SOFTWARE INCLUDING ALL IMPLIED
COMMENT  WARRANTIES OF MERCHANTABILITY AND FITNESS IN NO EVENT SHALL ADOBE
COMMENT  SYSTEMS AND DIGITAL EQUIPMENT CORPORATION BE LIABLE FOR ANY SPECIAL
COMMENT  INDIRECT OR CONSEQUENTIAL DAMAGES OR ANY DAMAGES WHATSOEVER
COMMENT  RESULTING FROM LOSS OF USE DATA OR PROFITS, WHETHER IN AN ACTION OF
COMMENT  CONTRACT NEGLIGENCE OR OTHER TORTIOUS ACTION, ARISING OUT OF OR IN
COMMENT  CONNECTION WITH THE USE OR PERFORMANCE OF THIS SOFTWARE.
COMMENT 
COMMENT 
COMMENT Begin LogicalFontDescription
COMMENT END LogicalFontDescription
COMMENT ***** end of inserted font properties
FONT -raytheon-osda-map-symbol-font
SIZE 32 100 100
FONTBOUNDINGBOX 32 32 0 0
STARTPROPERTIES 22
FONTNAME_REGISTRY ""
FAMILY_NAME "osda"
FOUNDRY "raytheon"
WEIGHT_NAME "osda"
SLANT "map"
SETWIDTH_NAME "symbol"
ADD_STYLE_NAME "font"
PIXEL_SIZE 32
POINT_SIZE 320
RESOLUTION_X 100
RESOLUTION_Y 100
SPACING "M"
AVERAGE_WIDTH 320
CHARSET_REGISTRY "ISO8859"
CHARSET_ENCODING "1"
CHARSET_COLLECTIONS "ASCII ISO8859-1 ADOBE-STANDARD"
FULL_NAME "-raytheon-osda-map-symbol-font"
COPYRIGHT "Copyright (c) 1987 Adobe Systems Inc., Portions Copyright 1988 Digital Equipment Corp."
FONT_ASCENT 32
FONT_DESCENT 0
CAP_HEIGHT 32
X_HEIGHT 32
ENDPROPERTIES
CHARS 23
STARTCHAR diamond
ENCODING 1
SWIDTH 600 0
DWIDTH 29 0
BBX 29 29 0 0
BITMAP
00000000
00000000
00000000
00000000
00000000
00020000
00020000
00050000
00050000
00088000
00088000
00104000
00104000
00202000
00202000
00401000
00401000
00800800
00800800
01000400
01fffc00
00000000
00000000
00000000
00000000
00000000
00000000
00000000
00000000
ENDCHAR
STARTCHAR opendiamond
ENCODING 2
SWIDTH 600 0
DWIDTH 29 0
BBX 29 29 0 0
BITMAP
00000000
00000000
00000000
00000000
00000000
00000000
00020000
00020000
00050000
00050000
00088000
00088000
00088000
00104000
00104000
00104000
00202000
00202000
00471000
00401000
00401000
00870800
00870800
00000000
00000000
00000000
00000000
00000000
00000000
ENDCHAR
STARTCHAR square
ENCODING 3
SWIDTH 600 0
DWIDTH 29 0
BBX 29 29 0 0
BITMAP
00000000
00000000
00444000
00248000
00150000
000e0000
01fff000
000e0000
00150000
00248000
00444000
00040000
00040000
00040000
00040000
00040000
00040000
00040000
00040000
00040000
00040000
00040000
00040000
00040000
00040000
00040000
00040000
00000000
00000000
ENDCHAR
STARTCHAR opensquare
ENCODING 4
SWIDTH 600 0
DWIDTH 29 0
BBX 29 29 0 0
BITMAP
00000000
00000000
00000000
00000000
00000000
00000000
00000000
00000000
00000000
00000000
00000000
00020000
00124000
000a8000
00070000
003fe000
00070000
000a8000
00124000
00020000
00000000
00000000
00000000
00000000
00000000
00000000
00000000
00000000
00000000
ENDCHAR
STARTCHAR squareinsquare
ENCODING 5
SWIDTH 600 0
DWIDTH 29 0
BBX 29 29 0 0
BITMAP
00070000
00070000
00070000
00070000
000f8000
003fe000
00e01800
01800c00
03000600
02000200
06000300
04000100
0c000180
fc0001f8
fc0001f8
fc0001f8
0c000180
04000100
06000300
02000200
03000600
01800c00
00e03800
003fe000
000f8000
00070000
00070000
00070000
00070000
ENDCHAR
STARTCHAR container
ENCODING 6
SWIDTH 600 0
DWIDTH 29 0
BBX 29 29 0 0
BITMAP
00000000
00000000
00000000
00000000
000f8000
003fe000
00e03800
01800c00
03070600
021fc200
06306300
04603100
0c401180
0cc01980
0cc01980
0cc01980
0c401180
04603100
06306300
021fc200
03070600
01800c00
00e03800
003fe000
000f8000
00000000
00000000
00000000
00000000
ENDCHAR
STARTCHAR plus
ENCODING 7
SWIDTH 600 0
DWIDTH 29 0
BBX 29 29 0 0
BITMAP
00070000
00070000
00070000
00070000
000f8000
003fe000
00e03800
01800c00
03070600
021fc200
06306300
04603100
0c401180
fcc019f8
fcc019f8
fcc019f8
0c401180
04603100
06306300
021fc200
03070600
01800c00
00e03800
003fe000
000f8000
00070000
00070000
00070000
00070000
ENDCHAR
STARTCHAR circle
ENCODING 8
SWIDTH 600 0
DWIDTH 29 0
BBX 29 29 0 0
BITMAP
00000000
00000000
00000000
00000000
000f8000
003fe000
00e01800
01800c00
03000600
02000200
06000300
04000100
0c000180
0c000180
0c000180
0c000180
0c000180
04000100
06000300
02000200
03000600
01800c00
00e03800
003fe000
000f8000
00000000
00000000
00000000
00000000
ENDCHAR
STARTCHAR opencircle
ENCODING 9
SWIDTH 600 0
DWIDTH 29 0
BBX 29 29 0 0
BITMAP
00000000
00000000
00000000
00000000
00020000
00020000
00020000
01020400
00870800
005fd000
00306000
00603000
00401000
00c01800
0fc01f80
00c01800
00401000
00603000
00306000
005fd000
00870800
01020400
00020000
00020000
00020000
00000000
00000000
00000000
00000000
ENDCHAR
STARTCHAR opensmallcircle
ENCODING 10
SWIDTH 600 0
DWIDTH 29 0
BBX 29 29 0 0
BITMAP
00000000
00000000
00000000
00000000
000f8000
003fe000
00e01800
01800c00
03000600
02306200
06306300
04306100
0c306180
0c306180
0c3fe180
0c306180
0c306180
04306100
06306300
02306200
03000600
01800c00
00e03800
003fe000
000f8000
00000000
00000000
00000000
00000000
ENDCHAR
STARTCHAR smalldiamond
ENCODING 11
SWIDTH 600 0
DWIDTH 29 0
BBX 29 29 0 0
BITMAP
00000000
00000000
00000000
00000000
00000000
00000000
00020000
00020000
00020000
00020000
00020000
00020000
00020000
00020000
03fffe00
00020000
00020000
00020000
00020000
00020000
00020000
00020000
00020000
00000000
00000000
00000000
00000000
00000000
00000000
ENDCHAR
STARTCHAR opensmalldiamond
ENCODING 12
SWIDTH 600 0
DWIDTH 29 0
BBX 29 29 0 0
BITMAP
00000000
00000000
00000000
00000000
00000000
00000000
00000000
00000000
00800800
00401000
00202000
00104000
00088000
00050000
00020000
00050000
00088000
00104000
00202000
00401000
00800800
00000000
00000000
00000000
00000000
00000000
00000000
00000000
00000000
ENDCHAR
STARTCHAR smallcircle
ENCODING 13
SWIDTH 600 0
DWIDTH 29 0
BBX 29 29 0 0
BITMAP
00000000
00000000
00000000
00000000
00000000
00000000
00000000
00000000
00000000
00000000
00020000
000f8000
001fc000
001fc000
003fe000
001fc000
001fc000
000f8000
00020000
00000000
00000000
00000000
00000000
00000000
00000000
00000000
00000000
00000000
00000000
ENDCHAR
STARTCHAR opensmallcircle
ENCODING 14
SWIDTH 600 0
DWIDTH 29 0
BBX 29 29 0 0
BITMAP
00000000
00000000
00000000
00000000
00000000
00000000
00000000
00070000
0018c000
00202000
00401000
00870800
008f8800
011fc400
011fc400
011fc400
008f8800
00870800
00401000
00202000
0018c000
00070000
00000000
00000000
00000000
00000000
00000000
00000000
00000000
ENDCHAR
STARTCHAR smallercircle
ENCODING 15
SWIDTH 600 0
DWIDTH 29 0
BBX 29 29 0 0
BITMAP
00000000
00000000
00000000
00000000
00000000
00000000
00000000
00000000
00fff800
00800800
00800800
00800800
00800800
00800800
00800800
00800800
00800800
00800800
00800800
00800800
00fff800
00000000
00000000
00000000
00000000
00000000
00000000
00000000
00000000
ENDCHAR
STARTCHAR almostsmallestcircle
ENCODING 16
SWIDTH 600 0
DWIDTH 32 0
BBX 32 32 0 0
BITMAP
00000000
00000000
00000000
00000000
00000000
00000000
00000000
00000000
00000000
00000000
00000000
00000000
00000000
00000000
00000000
00018000
00018000
00000000
00000000
00000000
00000000
00000000
00000000
00000000
00000000
00000000
00000000
00000000
00000000
00000000
00000000
00000000
ENDCHAR
STARTCHAR smallestcircle
ENCODING 17
SWIDTH 600 0
DWIDTH 32 0
BBX 32 32 0 0
BITMAP
00000000
00000000
00000000
00000000
00000000
00000000
00000000
00000000
00000000
00000000
00000000
00000000
00000000
00000000
00018000
0003c000
0003c000
00018000
00000000
00000000
00000000
00000000
00000000
00000000
00000000
00000000
00000000
00000000
00000000
00000000
00000000
00000000
ENDCHAR
STARTCHAR triangle
ENCODING 18
SWIDTH 600 0
DWIDTH 32 0
BBX 32 32 0 0
BITMAP
00018000
0003c000
0003c000
0003c000
0003c000
0003c000
0003c000
0003c000
0003c000
00018000
00000000
00000000
00000000
00000000
7f8001fe
ffc183ff
ffc183ff
7f8001fe
00000000
00000000
00000000
00000000
00018000
0003c000
0003c000
0003c000
0003c000
0003c000
0003c000
0003c000
0003c000
00018000
ENDCHAR
STARTCHAR smalltriangle
ENCODING 19
SWIDTH 600 0
DWIDTH 32 0
BBX 32 32 0 0
BITMAP
ffffffff
ffffffff
ffffffff
ffffffff
ffffffff
ffffffff
ffffffff
e0c38e0f
fbdf77bf
fbdfbfbf
fbc7cfbf
fbdff7bf
fbdf77bf
fbc38fbf
ffffffff
ffffffff
ffffffff
ffffffff
e0ef0f1f
fbd776ef
fbbb76ff
fbbb76ff
fb830ecf
fbbb76ef
fbbb771f
ffffffff
ffffffff
ffffffff
ffffffff
ffffffff
ffffffff
ffffffff
ENDCHAR
STARTCHAR twolinesinasquare
ENCODING 20
SWIDTH 600 0
DWIDTH 32 0
BBX 32 32 0 0
BITMAP
000ff000
007ffe00
01f18f80
078181e0
0e018070
18018018
18018018
3001800c
3001800c
60018006
60000006
60000006
c0000003
c0000003
c0000003
ffc183ff
ffc183ff
c0000003
c0000003
c0000003
60000006
60000006
60018006
3001800c
3001800c
18018018
18018018
0e018070
078181e0
01f18f80
007ffe00
000ff000
ENDCHAR
STARTCHAR poundsign
ENCODING 21
SWIDTH 600 0
DWIDTH 16 0
BBX 16 16 0 0
BITMAP
0000
0000
0000
0000
0000
0000
03c0
03c0
03c0
03c0
0000
0000
0000
0000
0000
0000
ENDCHAR
STARTCHAR circleinasquare
ENCODING 22
SWIDTH 600 0
DWIDTH 16 0
BBX 16 16 0 0
BITMAP
0000
0000
0000
1ff8
1ff8
1ff8
1ff8
1ff8
1ff8
1ff8
1ff8
1ff8
1ff8
0000
0000
0000
ENDCHAR
STARTCHAR hourglass
ENCODING 23
SWIDTH 600 0
DWIDTH 16 0
BBX 16 16 0 0
BITMAP
0000
0000
0000
0000
1ff8
1ff8
0ff0
0ff0
07e0
07e0
03c0
03c0
0180
0000
0000
0000
ENDCHAR
ENDFONT
