STARTFONT 2.1
COMMENT 
COMMENT  Copyright 1984 1987 Adobe Systems, Inc.
COMMENT  Portions Copyright 1988 Digital Equipment Corporation
COMMENT 
COMMENT  Adobe is a registered trademark of Adobe Systems Inc.  Permission 
COMMENT  to use these trademarks is hereby granted only in association with the
COMMENT  images described in this file.
COMMENT 
COMMENT  Permission to use copy, modify, and distribute this software and
COMMENT  its documentation for any purpose and without fee is hereby granted
COMMENT  provided that the above copyright notices appear in all copies and
COMMENT  that both those copyright notices and this permission notice appear
COMMENT  in supporting documentation and that the names of Adobe Systems and
COMMENT  Digital Equipment Corporation not be used in advertising or
COMMENT  publicity pertaining to distribution of the software without
COMMENT  specific written prior permission.  Adobe Systems and Digital
COMMENT  Equipment Corporation make no representations about the suitability
COMMENT  of this software for any purpose.  It is provided "as is" without
COMMENT  express or implied warranty.
COMMENT 
COMMENT  ADOBE SYSTEMS AND DIGITAL EQUIPMENT CORPORATION DISCLAIM ALL
COMMENT  WARRANTIES WITH REGARD TO THIS SOFTWARE INCLUDING ALL IMPLIED
COMMENT  WARRANTIES OF MERCHANTABILITY AND FITNESS IN NO EVENT SHALL ADOBE
COMMENT  SYSTEMS AND DIGITAL EQUIPMENT CORPORATION BE LIABLE FOR ANY SPECIAL
COMMENT  INDIRECT OR CONSEQUENTIAL DAMAGES OR ANY DAMAGES WHATSOEVER
COMMENT  RESULTING FROM LOSS OF USE DATA OR PROFITS, WHETHER IN AN ACTION OF
COMMENT  CONTRACT NEGLIGENCE OR OTHER TORTIOUS ACTION, ARISING OUT OF OR IN
COMMENT  CONNECTION WITH THE USE OR PERFORMANCE OF THIS SOFTWARE.
COMMENT 
COMMENT 
COMMENT Begin LogicalFontDescription
COMMENT END LogicalFontDescription
COMMENT ***** end of inserted font properties
FONT -raytheon-stars-cursor-font
SIZE 32 100 100
FONTBOUNDINGBOX 45 45 -16 -29
STARTPROPERTIES 23
FONTNAME_REGISTRY ""
FAMILY_NAME "stars"
FOUNDRY "raytheon"
WEIGHT_NAME "stars"
SLANT "map"
SETWIDTH_NAME "cursor"
ADD_STYLE_NAME "font"
PIXEL_SIZE 32
POINT_SIZE 320
RESOLUTION_X 100
RESOLUTION_Y 100
SPACING "M"
AVERAGE_WIDTH 320
CHARSET_REGISTRY "ISO8859"
CHARSET_ENCODING "1"
CHARSET_COLLECTIONS "ASCII ISO8859-1 ADOBE-STANDARD"
FULL_NAME "-raytheon-stars-cursor-font"
COPYRIGHT "Copyright (c) 1987 Adobe Systems Inc., Portions Copyright 1988 Digital Equipment Corp."
FONT_ASCENT 32
FONT_DESCENT 0
CAP_HEIGHT 32
X_HEIGHT 32
_XMBDFED_INFO "Edited with xmbdfed 4.5."
ENDPROPERTIES
CHARS 50
STARTCHAR keyboard_1_0
ENCODING 0
SWIDTH 1012 0
DWIDTH 45 0
BBX 9 9 -5 -4
BITMAP
0800
0800
0800
0800
FF80
0800
0800
0800
0800
ENDCHAR
STARTCHAR keyboard_1_0_mask
ENCODING 1
SWIDTH 1012 0
DWIDTH 45 0
BBX 11 11 -6 -5
BITMAP
0E00
0E00
0E00
0E00
FFE0
FFE0
FFE0
0E00
0E00
0E00
0E00
ENDCHAR
STARTCHAR keyboard_1_1
ENCODING 2
SWIDTH 1012 0
DWIDTH 45 0
BBX 11 11 -6 -5
BITMAP
0400
0400
0400
0400
0400
FFE0
0400
0400
0400
0400
0400
ENDCHAR
STARTCHAR keyboard_1_1_mask
ENCODING 3
SWIDTH 1012 0
DWIDTH 45 0
BBX 13 13 -7 -6
BITMAP
0700
0700
0700
0700
0700
FFF8
FFF8
FFF8
0700
0700
0700
0700
0700
ENDCHAR
STARTCHAR keyboard_1_2
ENCODING 4
SWIDTH 1012 0
DWIDTH 45 0
BBX 13 13 -7 -6
BITMAP
0200
0200
0200
0200
0200
0200
FFF8
0200
0200
0200
0200
0200
0200
ENDCHAR
STARTCHAR keyboard_1_2_mask
ENCODING 5
SWIDTH 1012 0
DWIDTH 45 0
BBX 15 15 -8 -7
BITMAP
0380
0380
0380
0380
0380
0380
FFFE
FFFE
FFFE
0380
0380
0380
0380
0380
0380
ENDCHAR
STARTCHAR keyboard_1_3
ENCODING 6
SWIDTH 1012 0
DWIDTH 45 0
BBX 17 17 -9 -8
BITMAP
008000
008000
008000
008000
008000
008000
008000
008000
FFFF80
008000
008000
008000
008000
008000
008000
008000
008000
ENDCHAR
STARTCHAR keyboard_1_3_mask
ENCODING 7
SWIDTH 1012 0
DWIDTH 45 0
BBX 19 19 -10 -9
BITMAP
00E000
00E000
00E000
00E000
00E000
00E000
00E000
00E000
FFFFE0
FFFFE0
FFFFE0
00E000
00E000
00E000
00E000
00E000
00E000
00E000
00E000
ENDCHAR
STARTCHAR keyboard_1_4
ENCODING 8
SWIDTH 1012 0
DWIDTH 45 0
BBX 21 21 -11 -10
BITMAP
002000
002000
002000
002000
002000
002000
002000
002000
002000
002000
FFFFF8
002000
002000
002000
002000
002000
002000
002000
002000
002000
002000
ENDCHAR
STARTCHAR keyboard_1_4_mask
ENCODING 9
SWIDTH 1012 0
DWIDTH 45 0
BBX 23 23 -12 -11
BITMAP
003800
003800
003800
003800
003800
003800
003800
003800
003800
003800
FFFFFE
FFFFFE
FFFFFE
003800
003800
003800
003800
003800
003800
003800
003800
003800
003800
ENDCHAR
STARTCHAR keyboard_1_5
ENCODING 10
SWIDTH 1012 0
DWIDTH 45 0
BBX 21 21 -11 -10
BITMAP
002000
002000
002000
002000
002000
002000
002000
002000
002000
002000
FFFFF8
002000
002000
002000
002000
002000
002000
002000
002000
002000
002000
ENDCHAR
STARTCHAR keyboard_1_5_mask
ENCODING 11
SWIDTH 1012 0
DWIDTH 45 0
BBX 23 23 -12 -11
BITMAP
003800
003800
003800
003800
003800
003800
003800
003800
003800
003800
FFFFFE
FFFFFE
FFFFFE
003800
003800
003800
003800
003800
003800
003800
003800
003800
003800
ENDCHAR
STARTCHAR keyboard_2_0
ENCODING 12
SWIDTH 1012 0
DWIDTH 45 0
BBX 9 9 -5 -4
BITMAP
3E00
4900
8080
8080
C180
8080
8080
4900
3E00
ENDCHAR
STARTCHAR keyboard_2_0_mask
ENCODING 13
SWIDTH 1012 0
DWIDTH 45 0
BBX 11 11 -6 -5
BITMAP
3F80
7FC0
FFE0
FFE0
F1E0
F1E0
F1E0
FFE0
FFE0
7FC0
3F80
ENDCHAR
STARTCHAR keyboard_2_1
ENCODING 14
SWIDTH 1012 0
DWIDTH 45 0
BBX 11 11 -6 -5
BITMAP
1F00
2480
4440
8020
8020
E0E0
8020
8020
4440
2480
1F00
ENDCHAR
STARTCHAR keyboard_2_1_mask
ENCODING 15
SWIDTH 1012 0
DWIDTH 45 0
BBX 13 13 -7 -6
BITMAP
1FC0
3FE0
7FF0
FFF8
F778
F8F8
F8F8
F8F8
F778
FFF8
7FF0
3FE0
1FC0
ENDCHAR
STARTCHAR keyboard_2_2
ENCODING 16
SWIDTH 1012 0
DWIDTH 45 0
BBX 13 13 -7 -6
BITMAP
0F80
3260
4210
4010
8008
8008
E038
8008
8008
4010
4210
3260
0F80
ENDCHAR
STARTCHAR keyboard_2_2_mask
ENCODING 17
SWIDTH 1012 0
DWIDTH 45 0
BBX 15 15 -8 -7
BITMAP
0FE0
3FF8
7FFC
7FFC
F39E
F01E
F83E
F83E
F83E
F01E
F39E
7FFC
7FFC
3FF8
0FE0
ENDCHAR
STARTCHAR keyboard_2_3
ENCODING 18
SWIDTH 1012 0
DWIDTH 45 0
BBX 17 17 -9 -8
BITMAP
03E000
0C9800
108400
200200
400100
400100
800080
800080
E00380
800080
800080
400100
400100
200200
108400
0C9800
03E000
ENDCHAR
STARTCHAR keyboard_2_3_mask
ENCODING 19
SWIDTH 1012 0
DWIDTH 45 0
BBX 19 19 -10 -9
BITMAP
03F800
0FFE00
1FFF00
3FFF80
7CE7C0
7803C0
F001E0
F001E0
F803E0
F803E0
F803E0
F001E0
F001E0
7803C0
7CE7C0
3FFF80
1FFF00
0FFE00
03F800
ENDCHAR
STARTCHAR keyboard_2_4
ENCODING 20
SWIDTH 1012 0
DWIDTH 45 0
BBX 21 21 -11 -10
BITMAP
01FC00
062300
082080
102040
200020
400010
400010
800008
800008
800008
F00078
800008
800008
800008
400010
400010
200020
102040
082080
062300
01FC00
ENDCHAR
STARTCHAR keyboard_2_4_mask
ENCODING 21
SWIDTH 1012 0
DWIDTH 45 0
BBX 23 23 -12 -11
BITMAP
01FF00
07FFC0
0FFFE0
1FBBF0
3E38F8
7C387C
78003C
F0001E
F0001E
E0000E
FC007E
FC007E
FC007E
E0000E
F0001E
F0001E
78003C
7C387C
3E38F8
1FBBF0
0FFFE0
07FFC0
01FF00
ENDCHAR
STARTCHAR keyboard_2_5
ENCODING 22
SWIDTH 1012 0
DWIDTH 45 0
BBX 21 21 -11 -10
BITMAP
01FC00
062300
082080
102040
200020
400010
400010
800008
800008
800008
F00078
800008
800008
800008
400010
400010
200020
102040
082080
062300
01FC00
ENDCHAR
STARTCHAR keyboard_2_5_mask
ENCODING 23
SWIDTH 1012 0
DWIDTH 45 0
BBX 23 23 -12 -11
BITMAP
01FF00
07FFC0
0FFFE0
1FBBF0
3E38F8
7C387C
78003C
F0001E
F0001E
E0000E
FC007E
FC007E
FC007E
E0000E
F0001E
F0001E
78003C
7C387C
3E38F8
1FBBF0
0FFFE0
07FFC0
01FF00
ENDCHAR
STARTCHAR keyboard_3_0
ENCODING 24
SWIDTH 1012 0
DWIDTH 45 0
BBX 9 9 -5 -4
BITMAP
8080
4100
2200
1400
0800
1400
2200
4100
8080
ENDCHAR
STARTCHAR keyboard_3_0_mask
ENCODING 25
SWIDTH 1012 0
DWIDTH 45 0
BBX 11 11 -6 -5
BITMAP
E0E0
F1E0
FBE0
7FC0
3F80
1F00
3F80
7FC0
FBE0
F1E0
E0E0
ENDCHAR
STARTCHAR keyboard_3_1
ENCODING 26
SWIDTH 1012 0
DWIDTH 45 0
BBX 11 11 -6 -5
BITMAP
8020
4040
2080
1100
0A00
0400
0A00
1100
2080
4040
8020
ENDCHAR
STARTCHAR keyboard_3_1_mask
ENCODING 27
SWIDTH 1012 0
DWIDTH 45 0
BBX 13 13 -7 -6
BITMAP
E038
F078
F8F8
7DF0
3FE0
1FC0
0F80
1FC0
3FE0
7DF0
F8F8
F078
E038
ENDCHAR
STARTCHAR keyboard_3_2
ENCODING 28
SWIDTH 1012 0
DWIDTH 45 0
BBX 13 13 -7 -6
BITMAP
8008
4010
2020
1040
0880
0500
0200
0500
0880
1040
2020
4010
8008
ENDCHAR
STARTCHAR keyboard_3_2_mask
ENCODING 29
SWIDTH 1012 0
DWIDTH 45 0
BBX 15 15 -8 -7
BITMAP
E00E
F01E
F83E
7C7C
3EF8
1FF0
0FE0
07C0
0FE0
1FF0
3EF8
7C7C
F83E
F01E
E00E
ENDCHAR
STARTCHAR keyboard_3_3
ENCODING 30
SWIDTH 1012 0
DWIDTH 45 0
BBX 17 17 -9 -8
BITMAP
800080
400100
200200
100400
080800
041000
022000
014000
008000
014000
022000
041000
080800
100400
200200
400100
800080
ENDCHAR
STARTCHAR keyboard_3_3_mask
ENCODING 31
SWIDTH 1012 0
DWIDTH 45 0
BBX 19 19 -10 -9
BITMAP
E000E0
F001E0
F803E0
7C07C0
3E0F80
1F1F00
0FBE00
07FC00
03F800
01F000
03F800
07FC00
0FBE00
1F1F00
3E0F80
7C07C0
F803E0
F001E0
E000E0
ENDCHAR
STARTCHAR keyboard_3_4
ENCODING 32
SWIDTH 1012 0
DWIDTH 45 0
BBX 21 21 -11 -10
BITMAP
800008
400010
200020
100040
080080
040100
020200
010400
008800
005000
002000
005000
008800
010400
020200
040100
080080
100040
200020
400010
800008
ENDCHAR
STARTCHAR keyboard_3_4_mask
ENCODING 33
SWIDTH 1012 0
DWIDTH 45 0
BBX 23 23 -12 -11
BITMAP
E0000E
F0001E
F8003E
7C007C
3E00F8
1F01F0
0F83E0
07C7C0
03EF80
01FF00
00FE00
007C00
00FE00
01FF00
03EF80
07C7C0
0F83E0
1F01F0
3E00F8
7C007C
F8003E
F0001E
E0000E
ENDCHAR
STARTCHAR keyboard_3_5
ENCODING 34
SWIDTH 1012 0
DWIDTH 45 0
BBX 21 21 -11 -10
BITMAP
800008
400010
200020
100040
080080
040100
020200
010400
008800
005000
002000
005000
008800
010400
020200
040100
080080
100040
200020
400010
800008
ENDCHAR
STARTCHAR keyboard_3_5_mask
ENCODING 35
SWIDTH 1012 0
DWIDTH 45 0
BBX 23 23 -12 -11
BITMAP
E0000E
F0001E
F8003E
7C007C
3E00F8
1F01F0
0F83E0
07C7C0
03EF80
01FF00
00FE00
007C00
00FE00
01FF00
03EF80
07C7C0
0F83E0
1F01F0
3E00F8
7C007C
F8003E
F0001E
E0000E
ENDCHAR
STARTCHAR dcb_cursor_0
ENCODING 36
SWIDTH 1012 0
DWIDTH 45 0
BBX 29 29 -1 -28
BITMAP
FFFFE000
C0000000
A0000000
90000000
88000000
84000000
82000000
81000000
80800000
80400000
80200000
80100000
80080000
80040000
80020000
80010000
80008000
80004000
80002000
00001000
00000800
00000400
00000200
00000100
00000080
00000040
00000020
00000010
00000008
ENDCHAR
STARTCHAR dcb_cursor_0_mask
ENCODING 37
SWIDTH 1012 0
DWIDTH 45 0
BBX 31 31 -2 -29
BITMAP
FFFFFC00
FFFFF800
FFFFF000
F8000000
FC000000
EE000000
E7000000
E3800000
E1C00000
E0E00000
E0700000
E0380000
E01C0000
E00E0000
E0070000
E0038000
E001C000
E000E000
E0007000
E0003800
C0001C00
80000E00
00000700
00000380
000001C0
000000E0
00000070
00000038
0000001C
0000000E
00000006
ENDCHAR
STARTCHAR dcb_cursor_1
ENCODING 38
SWIDTH 1012 0
DWIDTH 45 0
BBX 29 29 -1 -28
BITMAP
FFFFE000
C0000000
A0000000
90000000
88000000
84000000
82000000
81000000
80800000
80400000
80200000
80100000
80080000
80040000
80020000
80010000
80008000
80004000
80002000
00001000
00000800
00000400
00000200
00000100
00000080
00000040
00000020
00000010
00000008
ENDCHAR
STARTCHAR dcb_cursor_1_mask
ENCODING 39
SWIDTH 1012 0
DWIDTH 45 0
BBX 31 31 -2 -29
BITMAP
FFFFFC00
FFFFF800
FFFFF000
F8000000
FC000000
EE000000
E7000000
E3800000
E1C00000
E0E00000
E0700000
E0380000
E01C0000
E00E0000
E0070000
E0038000
E001C000
E000E000
E0007000
E0003800
C0001C00
80000E00
00000700
00000380
000001C0
000000E0
00000070
00000038
0000001C
0000000E
00000006
ENDCHAR
STARTCHAR dcb_cursor_2
ENCODING 40
SWIDTH 1012 0
DWIDTH 45 0
BBX 29 29 -1 -28
BITMAP
FFFFE000
C0000000
A0000000
90000000
88000000
84000000
82000000
81000000
80800000
80400000
80200000
80100000
80080000
80040000
80020000
80010000
80008000
80004000
80002000
00001000
00000800
00000400
00000200
00000100
00000080
00000040
00000020
00000010
00000008
ENDCHAR
STARTCHAR dcb_cursor_2_mask
ENCODING 41
SWIDTH 1012 0
DWIDTH 45 0
BBX 31 31 -2 -29
BITMAP
FFFFFC00
FFFFF800
FFFFF000
F8000000
FC000000
EE000000
E7000000
E3800000
E1C00000
E0E00000
E0700000
E0380000
E01C0000
E00E0000
E0070000
E0038000
E001C000
E000E000
E0007000
E0003800
C0001C00
80000E00
00000700
00000380
000001C0
000000E0
00000070
00000038
0000001C
0000000E
00000006
ENDCHAR
STARTCHAR dcb_cursor_3
ENCODING 42
SWIDTH 1012 0
DWIDTH 45 0
BBX 29 29 -1 -28
BITMAP
FFFFE000
C0000000
A0000000
90000000
88000000
84000000
82000000
81000000
80800000
80400000
80200000
80100000
80080000
80040000
80020000
80010000
80008000
80004000
80002000
00001000
00000800
00000400
00000200
00000100
00000080
00000040
00000020
00000010
00000008
ENDCHAR
STARTCHAR dcb_cursor_3_mask
ENCODING 43
SWIDTH 1012 0
DWIDTH 45 0
BBX 31 31 -2 -29
BITMAP
FFFFFC00
FFFFF800
FFFFF000
F8000000
FC000000
EE000000
E7000000
E3800000
E1C00000
E0E00000
E0700000
E0380000
E01C0000
E00E0000
E0070000
E0038000
E001C000
E000E000
E0007000
E0003800
C0001C00
80000E00
00000700
00000380
000001C0
000000E0
00000070
00000038
0000001C
0000000E
00000006
ENDCHAR
STARTCHAR dcb_cursor_4
ENCODING 44
SWIDTH 1012 0
DWIDTH 45 0
BBX 29 29 -1 -28
BITMAP
FFFFE000
C0000000
A0000000
90000000
88000000
84000000
82000000
81000000
80800000
80400000
80200000
80100000
80080000
80040000
80020000
80010000
80008000
80004000
80002000
00001000
00000800
00000400
00000200
00000100
00000080
00000040
00000020
00000010
00000008
ENDCHAR
STARTCHAR dcb_cursor_4_mask
ENCODING 45
SWIDTH 1012 0
DWIDTH 45 0
BBX 31 31 -2 -29
BITMAP
FFFFFC00
FFFFF800
FFFFF000
F8000000
FC000000
EE000000
E7000000
E3800000
E1C00000
E0E00000
E0700000
E0380000
E01C0000
E00E0000
E0070000
E0038000
E001C000
E000E000
E0007000
E0003800
C0001C00
80000E00
00000700
00000380
000001C0
000000E0
00000070
00000038
0000001C
0000000E
00000006
ENDCHAR
STARTCHAR dcb_cursor_5
ENCODING 46
SWIDTH 1012 0
DWIDTH 45 0
BBX 29 29 -1 -28
BITMAP
FFFFE000
C0000000
A0000000
90000000
88000000
84000000
82000000
81000000
80800000
80400000
80200000
80100000
80080000
80040000
80020000
80010000
80008000
80004000
80002000
00001000
00000800
00000400
00000200
00000100
00000080
00000040
00000020
00000010
00000008
ENDCHAR
STARTCHAR dcb_cursor_5_mask
ENCODING 47
SWIDTH 1012 0
DWIDTH 45 0
BBX 31 31 -2 -29
BITMAP
FFFFFC00
FFFFF800
FFFFF000
F8000000
FC000000
EE000000
E7000000
E3800000
E1C00000
E0E00000
E0700000
E0380000
E01C0000
E00E0000
E0070000
E0038000
E001C000
E000E000
E0007000
E0003800
C0001C00
80000E00
00000700
00000380
000001C0
000000E0
00000070
00000038
0000001C
0000000E
00000006
ENDCHAR
STARTCHAR special_cursor
ENCODING 48
SWIDTH 1012 0
DWIDTH 45 0
BBX 17 17 -8 -8
BITMAP
008000
000000
000000
008000
000000
000000
008000
000000
922480
000000
008000
000000
000000
008000
000000
000000
008000
ENDCHAR
STARTCHAR invisible_cursor
ENCODING 49
SWIDTH 600 0
DWIDTH 32 0
BBX 32 32 -16 -16
BITMAP
00000000
00000000
00000000
00000000
00000000
00000000
00000000
00000000
00000000
00000000
00000000
00000000
00000000
00000000
00000000
00000000
00000000
00000000
00000000
00000000
00000000
00000000
00000000
00000000
00000000
00000000
00000000
00000000
00000000
00000000
00000000
00000000
ENDCHAR
ENDFONT
