STARTFONT 2.1
FONT tvsys13b
SIZE 20 72 72
FONTBOUNDINGBOX 13 20 0 0
COMMENT "Generated by fontforge, http://fontforge.sourceforge.net"
STARTPROPERTIES 8
POINT_SIZE 200
WEIGHT 10
RESOLUTION 99
RESOLUTION_X 72
RESOLUTION_Y 72
X_HEIGHT 0
QUAD_WIDTH 13
_XMBDFED_INFO "Edited with xmbdfed 4.4."
ENDPROPERTIES
CHARS 256
STARTCHAR char0
ENCODING 0
SWIDTH 650 0
DWIDTH 13 0
BBX 0 0 0 0
BITMAP
ENDCHAR
STARTCHAR char1
ENCODING 1
SWIDTH 650 0
DWIDTH 13 0
BBX 10 17 1 2
BITMAP
00C0
1EC0
3F80
7380
6380
6780
6780
6D80
6D80
6D80
7980
7980
7180
7380
FF00
DE00
C000
ENDCHAR
STARTCHAR char2
ENCODING 2
SWIDTH 650 0
DWIDTH 13 0
BBX 8 15 2 3
BITMAP
3C
7E
E7
C3
C7
CB
CB
D3
D3
E3
E3
C3
E7
7E
3C
ENDCHAR
STARTCHAR char3
ENCODING 3
SWIDTH 650 0
DWIDTH 13 0
BBX 8 15 2 3
BITMAP
3C
7E
E7
C3
C3
C3
DB
DB
DB
C3
C3
C3
E7
7E
3C
ENDCHAR
STARTCHAR char4
ENCODING 4
SWIDTH 650 0
DWIDTH 13 0
BBX 8 15 2 3
BITMAP
3C
7E
E7
C3
C3
C3
C3
C7
CB
D3
E3
C3
E7
7E
3C
ENDCHAR
STARTCHAR char5
ENCODING 5
SWIDTH 650 0
DWIDTH 13 0
BBX 8 15 2 3
BITMAP
3C
7E
E7
C7
CF
CF
DB
DB
DB
F3
F3
E3
E7
7E
3C
ENDCHAR
STARTCHAR char6
ENCODING 6
SWIDTH 650 0
DWIDTH 13 0
BBX 6 15 3 3
BITMAP
78
FC
CC
CC
CC
CC
CC
CC
CC
CC
CC
CC
CC
FC
78
ENDCHAR
STARTCHAR char7
ENCODING 7
SWIDTH 650 0
DWIDTH 13 0
BBX 8 8 3 6
BITMAP
3C
7E
FF
FF
FF
FF
7E
3C
ENDCHAR
STARTCHAR char8
ENCODING 8
SWIDTH 650 0
DWIDTH 13 0
BBX 8 15 2 3
BITMAP
3C
7E
E7
C3
C3
C3
C3
C3
C3
C3
C3
C3
E7
7E
3C
ENDCHAR
STARTCHAR char9
ENCODING 9
SWIDTH 600 0
DWIDTH 12 0
BBX 11 11 1 6
BITMAP
0E00
3180
4040
4040
8020
8020
8020
4040
4040
3180
0E00
ENDCHAR
STARTCHAR char10
ENCODING 10
SWIDTH 650 0
DWIDTH 13 0
BBX 0 0 0 0
BITMAP
ENDCHAR
STARTCHAR char11
ENCODING 11
SWIDTH 650 0
DWIDTH 13 0
BBX 10 15 1 3
BITMAP
3F00
7F80
E1C0
C0C0
C0C0
C0C0
C0C0
C0C0
C0C0
C0C0
C0C0
C0C0
E1C0
7F80
3F00
ENDCHAR
STARTCHAR char12
ENCODING 12
SWIDTH 650 0
DWIDTH 13 0
BBX 10 15 1 3
BITMAP
7F80
FFC0
C0C0
C0C0
C0C0
C0C0
C0C0
C0C0
C0C0
C0C0
C0C0
C0C0
C0C0
FFC0
7F80
ENDCHAR
STARTCHAR char13
ENCODING 13
SWIDTH 650 0
DWIDTH 13 0
BBX 8 15 2 3
BITMAP
3C
7E
E7
C3
C7
CB
CB
D3
D3
E3
E3
C3
E7
7E
3C
ENDCHAR
STARTCHAR char14
ENCODING 14
SWIDTH 650 0
DWIDTH 13 0
BBX 8 15 2 3
BITMAP
3C
7E
E7
C3
C7
CF
CB
DB
D3
F3
E3
C3
E7
7E
3C
ENDCHAR
STARTCHAR char15
ENCODING 15
SWIDTH 600 0
DWIDTH 12 0
BBX 12 17 0 2
BITMAP
FFF0
FFF0
FFF0
FFF0
FFF0
FFF0
FFF0
FFF0
FFF0
FFF0
FFF0
FFF0
FFF0
FFF0
FFF0
FFF0
FFF0
ENDCHAR
STARTCHAR char16
ENCODING 16
SWIDTH 650 0
DWIDTH 13 0
BBX 10 13 0 5
BITMAP
8000
8000
E000
F000
F000
FE00
FFC0
FFC0
FE00
F000
E000
E000
8000
ENDCHAR
STARTCHAR char17
ENCODING 17
SWIDTH 650 0
DWIDTH 13 0
BBX 10 13 0 5
BITMAP
0040
0040
01C0
03C0
03C0
1FC0
FFC0
FFC0
1FC0
03C0
01C0
01C0
0040
ENDCHAR
STARTCHAR char18
ENCODING 18
SWIDTH 650 0
DWIDTH 13 0
BBX 9 13 1 5
BITMAP
1C00
1C00
3F00
FF80
FF80
1C00
1C00
1C00
1C00
FF80
3F00
3F00
1C00
ENDCHAR
STARTCHAR char19
ENCODING 19
SWIDTH 650 0
DWIDTH 13 0
BBX 9 13 1 5
BITMAP
E380
E380
E380
E380
E380
E380
E380
E380
E380
0000
E380
E380
E380
ENDCHAR
STARTCHAR char20
ENCODING 20
SWIDTH 650 0
DWIDTH 13 0
BBX 3 8 7 10
BITMAP
C0
C0
00
00
00
00
E0
E0
ENDCHAR
STARTCHAR char21
ENCODING 21
SWIDTH 650 0
DWIDTH 13 0
BBX 10 19 0 0
BITMAP
7F80
E1C0
E1C0
7000
1E00
1E00
7380
E1C0
E1C0
E1C0
7380
1E00
1E00
0380
E1C0
E1C0
7F80
7F80
7F80
ENDCHAR
STARTCHAR char22
ENCODING 22
SWIDTH 650 0
DWIDTH 13 0
BBX 10 4 0 5
BITMAP
FFC0
FFC0
FFC0
FFC0
ENDCHAR
STARTCHAR char23
ENCODING 23
SWIDTH 650 0
DWIDTH 13 0
BBX 9 15 1 3
BITMAP
1C00
1C00
3F00
FF80
FF80
1C00
1C00
1C00
1C00
FF80
3F00
3F00
1C00
FF80
FF80
ENDCHAR
STARTCHAR char24
ENCODING 24
SWIDTH 650 0
DWIDTH 13 0
BBX 12 16 0 3
BITMAP
0600
0F00
1F80
36C0
6660
C630
0600
0600
0600
0600
0600
0600
0600
0600
0600
0600
ENDCHAR
STARTCHAR char25
ENCODING 25
SWIDTH 650 0
DWIDTH 13 0
BBX 12 16 0 3
BITMAP
0600
0600
0600
0600
0600
0600
0600
0600
0600
8610
C630
6660
36C0
1F80
0F00
0600
ENDCHAR
STARTCHAR char26
ENCODING 26
SWIDTH 650 0
DWIDTH 13 0
BBX 12 12 0 5
BITMAP
0200
0300
0180
00C0
0060
FFF0
FFF0
0060
00C0
0180
0300
0200
ENDCHAR
STARTCHAR char27
ENCODING 27
SWIDTH 650 0
DWIDTH 13 0
BBX 12 12 0 5
BITMAP
0400
0C00
1800
3000
6000
FFF0
FFF0
6000
3000
1800
0C00
0400
ENDCHAR
STARTCHAR char28
ENCODING 28
SWIDTH 650 0
DWIDTH 13 0
BBX 10 5 0 8
BITMAP
E000
E000
E000
E000
FFC0
ENDCHAR
STARTCHAR char29
ENCODING 29
SWIDTH 650 0
DWIDTH 13 0
BBX 10 7 0 8
BITMAP
1200
1200
7380
FFC0
FFC0
7380
1200
ENDCHAR
STARTCHAR char30
ENCODING 30
SWIDTH 650 0
DWIDTH 13 0
BBX 11 11 1 5
BITMAP
0400
0E00
0E00
1F00
1F00
3F80
3F80
7FC0
7FC0
FFE0
FFE0
ENDCHAR
STARTCHAR char31
ENCODING 31
SWIDTH 650 0
DWIDTH 13 0
BBX 10 10 0 6
BITMAP
FFC0
FFC0
FFC0
7F80
7F80
7F80
1E00
1E00
0C00
0C00
ENDCHAR
STARTCHAR char32
ENCODING 32
SWIDTH 650 0
DWIDTH 13 0
BBX 0 0 0 0
BITMAP
ENDCHAR
STARTCHAR char33
ENCODING 33
SWIDTH 650 0
DWIDTH 13 0
BBX 6 13 3 5
BITMAP
70
70
FC
FC
FC
FC
70
70
70
00
70
70
70
ENDCHAR
STARTCHAR char34
ENCODING 34
SWIDTH 650 0
DWIDTH 13 0
BBX 9 6 1 13
BITMAP
E380
E380
E380
E380
6300
6300
ENDCHAR
STARTCHAR char35
ENCODING 35
SWIDTH 650 0
DWIDTH 13 0
BBX 10 13 0 5
BITMAP
7380
7380
7380
FFC0
FFC0
7380
7380
7380
FFC0
FFC0
7380
7380
7380
ENDCHAR
STARTCHAR char36
ENCODING 36
SWIDTH 650 0
DWIDTH 13 0
BBX 10 20 0 0
BITMAP
0E00
0E00
7F80
7F80
E1C0
E040
E040
E000
7F80
7F80
01C0
81C0
E1C0
E1C0
7F80
0E00
0E00
0E00
0E00
0E00
ENDCHAR
STARTCHAR char37
ENCODING 37
SWIDTH 650 0
DWIDTH 13 0
BBX 10 10 0 5
BITMAP
E040
E0C0
E1C0
0380
0700
0E00
1C00
39C0
71C0
E1C0
ENDCHAR
STARTCHAR char38
ENCODING 38
SWIDTH 650 0
DWIDTH 13 0
BBX 10 13 0 5
BITMAP
1E00
1E00
7380
7380
7380
1E00
7DC0
7DC0
EF80
E380
E380
E380
7DC0
ENDCHAR
STARTCHAR char39
ENCODING 39
SWIDTH 650 0
DWIDTH 13 0
BBX 5 6 1 13
BITMAP
38
38
38
38
E0
E0
ENDCHAR
STARTCHAR char40
ENCODING 40
SWIDTH 650 0
DWIDTH 13 0
BBX 6 13 3 5
BITMAP
1C
1C
70
E0
E0
E0
E0
E0
E0
E0
70
70
1C
ENDCHAR
STARTCHAR char41
ENCODING 41
SWIDTH 650 0
DWIDTH 13 0
BBX 6 13 3 5
BITMAP
E0
E0
70
1C
1C
1C
1C
1C
1C
1C
70
70
E0
ENDCHAR
STARTCHAR char42
ENCODING 42
SWIDTH 650 0
DWIDTH 13 0
BBX 13 13 0 4
BITMAP
C718
A528
5550
2DA0
1540
F8F8
8008
F8F8
1540
2DA0
5550
A528
C718
ENDCHAR
STARTCHAR char43
ENCODING 43
SWIDTH 650 0
DWIDTH 13 0
BBX 13 13 0 4
BITMAP
0700
0500
0500
0500
0500
FDF8
8008
FDF8
0500
0500
0500
0500
0700
ENDCHAR
STARTCHAR char44
ENCODING 44
SWIDTH 650 0
DWIDTH 13 0
BBX 4 6 3 3
BITMAP
70
70
70
70
E0
E0
ENDCHAR
STARTCHAR char45
ENCODING 45
SWIDTH 650 0
DWIDTH 13 0
BBX 10 2 1 9
BITMAP
FFC0
FFC0
ENDCHAR
STARTCHAR char46
ENCODING 46
SWIDTH 650 0
DWIDTH 13 0
BBX 2 2 7 3
BITMAP
C0
C0
ENDCHAR
STARTCHAR char47
ENCODING 47
SWIDTH 650 0
DWIDTH 13 0
BBX 9 15 1 3
BITMAP
0180
0300
0300
0600
0600
0C00
0C00
1800
1800
3000
3000
6000
6000
C000
C000
ENDCHAR
STARTCHAR char48
ENCODING 48
SWIDTH 650 0
DWIDTH 13 0
BBX 10 17 1 2
BITMAP
3F00
4080
8040
9E40
9440
9440
9440
9A40
9A40
9640
9640
8A40
8A40
8E40
8040
4080
3F00
ENDCHAR
STARTCHAR char49
ENCODING 49
SWIDTH 650 0
DWIDTH 13 0
BBX 10 17 1 2
BITMAP
0E00
1200
2200
4200
8200
9200
F200
1200
1200
1200
1200
1200
1200
F3C0
8040
8040
FFC0
ENDCHAR
STARTCHAR char50
ENCODING 50
SWIDTH 650 0
DWIDTH 13 0
BBX 10 17 1 2
BITMAP
1E00
2100
4080
8C40
9240
9240
6240
0440
0480
0880
1100
2200
4400
8FC0
8040
8040
FFC0
ENDCHAR
STARTCHAR char51
ENCODING 51
SWIDTH 650 0
DWIDTH 13 0
BBX 10 17 1 2
BITMAP
1E00
2100
4080
8C40
9240
E240
0C40
1040
1080
0C40
0240
6240
9240
8C40
4080
2100
1E00
ENDCHAR
STARTCHAR char52
ENCODING 52
SWIDTH 650 0
DWIDTH 13 0
BBX 10 17 1 2
BITMAP
0780
0880
1080
2080
2480
4C80
4C80
9480
9CC0
8040
8040
FCC0
0480
0480
0480
0480
0780
ENDCHAR
STARTCHAR char53
ENCODING 53
SWIDTH 650 0
DWIDTH 13 0
BBX 10 17 1 2
BITMAP
FFC0
8040
8040
9FC0
9000
9E00
8100
8080
FC40
0640
0240
6240
9240
8C40
4080
2100
1E00
ENDCHAR
STARTCHAR char54
ENCODING 54
SWIDTH 650 0
DWIDTH 13 0
BBX 12 17 0 2
BITMAP
1F80
2040
4020
8F10
9090
9060
9F80
9040
8020
8F10
9090
9090
9090
8F10
4020
2040
1F80
ENDCHAR
STARTCHAR char55
ENCODING 55
SWIDTH 650 0
DWIDTH 13 0
BBX 10 17 1 2
BITMAP
FFC0
8040
8040
9E40
E240
0440
0880
0900
0900
1200
1200
1200
2400
2400
2400
2400
3C00
ENDCHAR
STARTCHAR char56
ENCODING 56
SWIDTH 650 0
DWIDTH 13 0
BBX 12 17 0 2
BITMAP
1F80
2040
4020
8F10
9090
9090
4F20
4020
2040
4F20
9090
9090
9090
8F10
4020
2040
1F80
ENDCHAR
STARTCHAR char57
ENCODING 57
SWIDTH 650 0
DWIDTH 13 0
BBX 12 17 0 2
BITMAP
1F80
2040
4020
8F10
9090
9090
9090
9090
8F10
4010
2090
1F90
7090
4F10
4020
2040
1F80
ENDCHAR
STARTCHAR char58
ENCODING 58
SWIDTH 650 0
DWIDTH 13 0
BBX 2 8 2 3
BITMAP
C0
C0
00
00
00
00
C0
C0
ENDCHAR
STARTCHAR char59
ENCODING 59
SWIDTH 650 0
DWIDTH 13 0
BBX 4 11 3 5
BITMAP
70
70
70
00
00
00
00
70
70
70
E0
ENDCHAR
STARTCHAR char60
ENCODING 60
SWIDTH 650 0
DWIDTH 13 0
BBX 9 15 1 3
BITMAP
0180
0300
0600
0C00
1800
3000
6000
C000
6000
3000
1800
0C00
0600
0300
0180
ENDCHAR
STARTCHAR char61
ENCODING 61
SWIDTH 650 0
DWIDTH 13 0
BBX 9 7 1 7
BITMAP
FF80
FF80
0000
0000
0000
FF80
FF80
ENDCHAR
STARTCHAR char62
ENCODING 62
SWIDTH 650 0
DWIDTH 13 0
BBX 9 15 1 3
BITMAP
C000
6000
3000
1800
0C00
0600
0300
0180
0300
0600
0C00
1800
3000
6000
C000
ENDCHAR
STARTCHAR char63
ENCODING 63
SWIDTH 650 0
DWIDTH 13 0
BBX 10 13 0 5
BITMAP
7F80
7F80
E1C0
E1C0
E1C0
0380
0E00
0E00
0E00
0000
0E00
0E00
0E00
ENDCHAR
STARTCHAR char64
ENCODING 64
SWIDTH 650 0
DWIDTH 13 0
BBX 0 0 0 0
BITMAP
ENDCHAR
STARTCHAR char65
ENCODING 65
SWIDTH 650 0
DWIDTH 13 0
BBX 12 17 0 2
BITMAP
0600
0900
0900
0900
1080
1080
1280
2640
2640
2640
4F20
4020
4020
9F90
9090
9090
6060
ENDCHAR
STARTCHAR char66
ENCODING 66
SWIDTH 650 0
DWIDTH 13 0
BBX 12 17 0 2
BITMAP
FF80
8040
8020
9F90
9090
9090
9F90
8020
8040
9F20
9090
9090
9090
9F90
8020
8040
FF80
ENDCHAR
STARTCHAR char67
ENCODING 67
SWIDTH 650 0
DWIDTH 13 0
BBX 12 17 0 2
BITMAP
1F80
2040
4020
8F10
9090
9060
9000
9000
9000
9000
9000
9060
9090
8F10
4020
2040
1F80
ENDCHAR
STARTCHAR char68
ENCODING 68
SWIDTH 650 0
DWIDTH 13 0
BBX 12 17 0 2
BITMAP
FF00
8080
8040
9E20
9120
9110
9090
9090
9090
9090
9090
9110
9120
9E20
8040
8080
FF00
ENDCHAR
STARTCHAR char69
ENCODING 69
SWIDTH 650 0
DWIDTH 13 0
BBX 12 17 0 2
BITMAP
FFF0
8010
8010
9FF0
9000
9000
9FC0
8040
8040
9FC0
9000
9000
9000
9FF0
8010
8010
FFF0
ENDCHAR
STARTCHAR char70
ENCODING 70
SWIDTH 650 0
DWIDTH 13 0
BBX 12 17 0 2
BITMAP
FFF0
8010
8010
9FF0
9000
9000
9FC0
8040
8040
9FC0
9000
9000
9000
9000
9000
9000
F000
ENDCHAR
STARTCHAR char71
ENCODING 71
SWIDTH 650 0
DWIDTH 13 0
BBX 12 17 0 2
BITMAP
1F80
2040
4020
8F10
9890
9060
9000
93E0
9410
9410
9390
9090
9090
8F10
4020
2040
1F80
ENDCHAR
STARTCHAR char72
ENCODING 72
SWIDTH 650 0
DWIDTH 13 0
BBX 12 17 0 2
BITMAP
F0F0
9090
9090
9090
9090
9090
9090
9F90
8010
8010
9F90
9090
9090
9090
9090
9090
F0F0
ENDCHAR
STARTCHAR char73
ENCODING 73
SWIDTH 650 0
DWIDTH 13 0
BBX 10 17 1 2
BITMAP
FFC0
8040
8040
F3C0
1200
1200
1200
1200
1200
1200
1200
1200
1200
F3C0
8040
8040
FFC0
ENDCHAR
STARTCHAR char74
ENCODING 74
SWIDTH 650 0
DWIDTH 13 0
BBX 12 17 0 2
BITMAP
3FF0
2010
2010
3E70
0240
0240
0240
0240
0240
0240
0240
6240
9240
8E40
4040
2080
1F00
ENDCHAR
STARTCHAR char75
ENCODING 75
SWIDTH 650 0
DWIDTH 13 0
BBX 12 17 0 2
BITMAP
F070
9090
9110
9220
9440
9880
9100
8200
8400
8200
9100
9880
9440
9220
9110
9090
F070
ENDCHAR
STARTCHAR char76
ENCODING 76
SWIDTH 650 0
DWIDTH 13 0
BBX 10 17 1 2
BITMAP
F000
9000
9000
9000
9000
9000
9000
9000
9000
9000
9000
9000
9000
9FC0
8040
8040
FFC0
ENDCHAR
STARTCHAR char77
ENCODING 77
SWIDTH 650 0
DWIDTH 13 0
BBX 12 17 0 2
BITMAP
E070
9090
8910
8610
8010
9090
9990
9690
9090
9090
9090
9090
9090
9090
9090
9090
F0F0
ENDCHAR
STARTCHAR char78
ENCODING 78
SWIDTH 650 0
DWIDTH 13 0
BBX 12 17 0 2
BITMAP
F0F0
9090
8890
8890
8490
8490
9290
9290
9990
9990
9490
9490
9210
9210
9110
9110
F1F0
ENDCHAR
STARTCHAR char79
ENCODING 79
SWIDTH 650 0
DWIDTH 13 0
BBX 12 17 0 2
BITMAP
1F80
2040
4020
8F10
9090
9090
9090
9090
9090
9090
9090
9090
9090
8F10
4020
2040
1F80
ENDCHAR
STARTCHAR char80
ENCODING 80
SWIDTH 650 0
DWIDTH 13 0
BBX 12 17 0 2
BITMAP
FF80
8040
8020
9F10
9090
9090
9090
9090
9F30
8020
80C0
9F00
9000
9000
9000
9000
F000
ENDCHAR
STARTCHAR char81
ENCODING 81
SWIDTH 650 0
DWIDTH 13 0
BBX 12 17 0 2
BITMAP
1F80
2040
4020
8F10
9090
9090
9090
9090
9690
9990
9990
9890
9410
8E20
4010
2090
1F60
ENDCHAR
STARTCHAR char82
ENCODING 82
SWIDTH 650 0
DWIDTH 13 0
BBX 12 17 0 2
BITMAP
FF80
8040
8020
9F10
9090
9090
9090
9090
9F20
8020
8040
9E40
9120
9120
9090
9090
F070
ENDCHAR
STARTCHAR char83
ENCODING 83
SWIDTH 650 0
DWIDTH 13 0
BBX 12 17 0 2
BITMAP
1F80
2040
4020
8F10
9090
9060
8E00
4380
2040
1C20
0310
6090
9090
8F10
4020
2040
1F80
ENDCHAR
STARTCHAR char84
ENCODING 84
SWIDTH 650 0
DWIDTH 13 0
BBX 12 17 0 2
BITMAP
FFF0
8010
8010
F9F0
0900
0900
0900
0900
0900
0900
0900
0900
0900
0900
0900
0900
0F00
ENDCHAR
STARTCHAR char85
ENCODING 85
SWIDTH 650 0
DWIDTH 13 0
BBX 12 17 0 2
BITMAP
F0F0
9090
9090
9090
9090
9090
9090
9090
9090
9090
9090
9090
9090
4F20
4020
2040
1F80
ENDCHAR
STARTCHAR char86
ENCODING 86
SWIDTH 650 0
DWIDTH 13 0
BBX 12 17 0 2
BITMAP
6060
9090
9090
9090
9090
8910
4920
4920
4920
4620
2640
2640
1080
1080
0900
0900
0600
ENDCHAR
STARTCHAR char87
ENCODING 87
SWIDTH 650 0
DWIDTH 13 0
BBX 12 17 0 2
BITMAP
F0F0
9090
9090
9090
9090
9090
9090
9090
9090
9690
9990
9090
8010
8610
8910
9090
E070
ENDCHAR
STARTCHAR char88
ENCODING 88
SWIDTH 650 0
DWIDTH 13 0
BBX 12 17 0 2
BITMAP
6060
9090
9090
4920
4920
2640
2640
1080
0900
1080
2640
2640
4920
4920
9090
9090
6060
ENDCHAR
STARTCHAR char89
ENCODING 89
SWIDTH 650 0
DWIDTH 13 0
BBX 12 17 0 2
BITMAP
6060
9090
9090
4920
4920
2640
1080
1080
0900
0900
0900
0900
0900
0900
0900
0900
0F00
ENDCHAR
STARTCHAR char90
ENCODING 90
SWIDTH 650 0
DWIDTH 13 0
BBX 12 17 0 2
BITMAP
FFF0
8010
8010
FF90
0120
0140
0240
0480
0900
1200
2400
2800
4800
9FF0
8010
8010
FFF0
ENDCHAR
STARTCHAR char91
ENCODING 91
SWIDTH 650 0
DWIDTH 13 0
BBX 6 15 3 3
BITMAP
FC
FC
C0
C0
C0
C0
C0
C0
C0
C0
C0
C0
C0
FC
FC
ENDCHAR
STARTCHAR char92
ENCODING 92
SWIDTH 650 0
DWIDTH 13 0
BBX 9 15 1 3
BITMAP
C000
6000
6000
3000
3000
1800
1800
0C00
0C00
0600
0600
0300
0300
0180
0180
ENDCHAR
STARTCHAR char93
ENCODING 93
SWIDTH 650 0
DWIDTH 13 0
BBX 6 13 3 5
BITMAP
FC
FC
1C
1C
1C
1C
1C
1C
1C
1C
1C
1C
FC
ENDCHAR
STARTCHAR char94
ENCODING 94
SWIDTH 650 0
DWIDTH 13 0
BBX 10 5 0 15
BITMAP
0C00
1E00
7380
7380
E1C0
ENDCHAR
STARTCHAR char95
ENCODING 95
SWIDTH 650 0
DWIDTH 13 0
BBX 12 2 0 3
BITMAP
FFF0
FFF0
ENDCHAR
STARTCHAR char96
ENCODING 96
SWIDTH 650 0
DWIDTH 13 0
BBX 4 4 3 16
BITMAP
E0
E0
70
70
ENDCHAR
STARTCHAR char97
ENCODING 97
SWIDTH 650 0
DWIDTH 13 0
BBX 10 8 0 5
BITMAP
7E00
0380
0380
7F80
E380
E380
E380
7DC0
ENDCHAR
STARTCHAR char98
ENCODING 98
SWIDTH 650 0
DWIDTH 13 0
BBX 10 13 0 5
BITMAP
F000
F000
7000
7000
7000
7E00
7380
7380
71C0
71C0
71C0
71C0
7F80
ENDCHAR
STARTCHAR char99
ENCODING 99
SWIDTH 650 0
DWIDTH 13 0
BBX 10 8 0 5
BITMAP
7F80
E1C0
E1C0
E000
E000
E1C0
E1C0
7F80
ENDCHAR
STARTCHAR char100
ENCODING 100
SWIDTH 650 0
DWIDTH 13 0
BBX 10 13 0 5
BITMAP
0F80
0F80
0380
0380
0380
1F80
7380
7380
E380
E380
E380
E380
7DC0
ENDCHAR
STARTCHAR char101
ENCODING 101
SWIDTH 650 0
DWIDTH 13 0
BBX 10 8 0 5
BITMAP
7F80
E1C0
E1C0
FFC0
E000
E1C0
E1C0
7F80
ENDCHAR
STARTCHAR char102
ENCODING 102
SWIDTH 650 0
DWIDTH 13 0
BBX 9 13 0 5
BITMAP
1E00
1E00
7380
7180
7180
7000
FC00
FC00
7000
7000
7000
7000
FC00
ENDCHAR
STARTCHAR char103
ENCODING 103
SWIDTH 650 0
DWIDTH 13 0
BBX 10 13 0 0
BITMAP
7DC0
E380
E380
E380
E380
7F80
7F80
0380
E380
E380
7E00
7E00
7E00
ENDCHAR
STARTCHAR char104
ENCODING 104
SWIDTH 650 0
DWIDTH 13 0
BBX 10 13 0 5
BITMAP
F000
F000
7000
7000
7000
7380
7DC0
7DC0
71C0
71C0
71C0
71C0
F1C0
ENDCHAR
STARTCHAR char105
ENCODING 105
SWIDTH 650 0
DWIDTH 13 0
BBX 6 13 3 5
BITMAP
70
70
70
00
00
F0
70
70
70
70
70
70
FC
ENDCHAR
STARTCHAR char106
ENCODING 106
SWIDTH 650 0
DWIDTH 13 0
BBX 9 18 1 0
BITMAP
0380
0380
0380
0000
0000
0780
0380
0380
0380
0380
0380
0380
E380
E380
E380
3F00
3F00
3F00
ENDCHAR
STARTCHAR char107
ENCODING 107
SWIDTH 650 0
DWIDTH 13 0
BBX 10 13 0 5
BITMAP
F000
F000
7000
7000
7000
71C0
7380
7380
7E00
7380
71C0
71C0
F1C0
ENDCHAR
STARTCHAR char108
ENCODING 108
SWIDTH 650 0
DWIDTH 13 0
BBX 6 13 3 5
BITMAP
F0
F0
70
70
70
70
70
70
70
70
70
70
FC
ENDCHAR
STARTCHAR char109
ENCODING 109
SWIDTH 650 0
DWIDTH 13 0
BBX 10 8 0 5
BITMAP
F380
FFC0
FFC0
EDC0
EDC0
EDC0
EDC0
E1C0
ENDCHAR
STARTCHAR char110
ENCODING 110
SWIDTH 650 0
DWIDTH 13 0
BBX 10 8 0 5
BITMAP
EF80
71C0
71C0
71C0
71C0
71C0
71C0
71C0
ENDCHAR
STARTCHAR char111
ENCODING 111
SWIDTH 650 0
DWIDTH 13 0
BBX 10 8 0 5
BITMAP
7F80
E1C0
E1C0
E1C0
E1C0
E1C0
E1C0
7F80
ENDCHAR
STARTCHAR char112
ENCODING 112
SWIDTH 650 0
DWIDTH 13 0
BBX 10 13 0 0
BITMAP
EF80
71C0
71C0
71C0
71C0
7F80
7F80
7000
7000
7000
FC00
FC00
FC00
ENDCHAR
STARTCHAR char113
ENCODING 113
SWIDTH 650 0
DWIDTH 13 0
BBX 10 13 0 0
BITMAP
7DC0
E380
E380
E380
E380
7F80
7F80
0380
0380
0380
0FC0
0FC0
0FC0
ENDCHAR
STARTCHAR char114
ENCODING 114
SWIDTH 650 0
DWIDTH 13 0
BBX 10 8 0 5
BITMAP
EF80
7DC0
7DC0
71C0
7000
7000
7000
FC00
ENDCHAR
STARTCHAR char115
ENCODING 115
SWIDTH 650 0
DWIDTH 13 0
BBX 10 8 0 5
BITMAP
7F80
E1C0
E1C0
7C00
0F80
E1C0
E1C0
7F80
ENDCHAR
STARTCHAR char116
ENCODING 116
SWIDTH 650 0
DWIDTH 13 0
BBX 10 13 0 5
BITMAP
0C00
0C00
1C00
1C00
1C00
FF80
1C00
1C00
1C00
1C00
1DC0
1DC0
0F80
ENDCHAR
STARTCHAR char117
ENCODING 117
SWIDTH 650 0
DWIDTH 13 0
BBX 10 8 0 5
BITMAP
E380
E380
E380
E380
E380
E380
E380
7DC0
ENDCHAR
STARTCHAR char118
ENCODING 118
SWIDTH 650 0
DWIDTH 13 0
BBX 9 8 1 5
BITMAP
E380
E380
E380
E380
E380
3F00
3F00
1C00
ENDCHAR
STARTCHAR char119
ENCODING 119
SWIDTH 650 0
DWIDTH 13 0
BBX 10 8 0 5
BITMAP
E1C0
E1C0
E1C0
EDC0
EDC0
FFC0
FFC0
7380
ENDCHAR
STARTCHAR char120
ENCODING 120
SWIDTH 650 0
DWIDTH 13 0
BBX 10 8 0 5
BITMAP
E1C0
7380
7380
1E00
1E00
7380
7380
E1C0
ENDCHAR
STARTCHAR char121
ENCODING 121
SWIDTH 650 0
DWIDTH 13 0
BBX 10 13 0 0
BITMAP
E1C0
E1C0
E1C0
E1C0
E1C0
7FC0
7FC0
01C0
0380
0380
FE00
FE00
FE00
ENDCHAR
STARTCHAR char122
ENCODING 122
SWIDTH 650 0
DWIDTH 13 0
BBX 10 8 0 5
BITMAP
FFC0
E380
E380
0E00
1C00
71C0
71C0
FFC0
ENDCHAR
STARTCHAR char123
ENCODING 123
SWIDTH 650 0
DWIDTH 13 0
BBX 9 13 1 5
BITMAP
0780
0780
1C00
1C00
1C00
1C00
F800
F800
1C00
1C00
1C00
1C00
0780
ENDCHAR
STARTCHAR char124
ENCODING 124
SWIDTH 650 0
DWIDTH 13 0
BBX 2 15 5 3
BITMAP
C0
C0
C0
C0
C0
C0
00
00
C0
C0
C0
C0
C0
C0
C0
ENDCHAR
STARTCHAR char125
ENCODING 125
SWIDTH 650 0
DWIDTH 13 0
BBX 9 13 1 5
BITMAP
F800
F800
1C00
1C00
1C00
1C00
0780
0780
1C00
1C00
1C00
1C00
F800
ENDCHAR
STARTCHAR char126
ENCODING 126
SWIDTH 650 0
DWIDTH 13 0
BBX 11 4 0 14
BITMAP
3860
7CE0
EFC0
C780
ENDCHAR
STARTCHAR char127
ENCODING 127
SWIDTH 650 0
DWIDTH 13 0
BBX 10 9 0 6
BITMAP
0C00
0C00
1E00
7380
7380
E1C0
E1C0
FFC0
FFC0
ENDCHAR
STARTCHAR char128
ENCODING 128
SWIDTH 650 0
DWIDTH 13 0
BBX 13 13 0 4
BITMAP
0200
0500
0880
0A80
1240
1540
2520
28A0
4890
5050
9FC8
8008
FFF8
ENDCHAR
STARTCHAR char129
ENCODING 129
SWIDTH 650 0
DWIDTH 13 0
BBX 13 13 0 4
BITMAP
FFF8
8008
BFE8
A028
A028
A028
A028
A028
A028
A028
BFE8
8008
FFF8
ENDCHAR
STARTCHAR char130
ENCODING 130
SWIDTH 650 0
DWIDTH 13 0
BBX 11 11 1 5
BITMAP
FFE0
8020
8020
FFE0
8020
8020
8020
8020
8020
8020
FFE0
ENDCHAR
STARTCHAR char131
ENCODING 131
SWIDTH 650 0
DWIDTH 13 0
BBX 11 11 1 4
BITMAP
FFE0
C060
4040
7FC0
2080
3180
1100
1B00
0A00
0E00
0400
ENDCHAR
STARTCHAR char132
ENCODING 132
SWIDTH 650 0
DWIDTH 13 0
BBX 11 11 1 5
BITMAP
0400
0E00
1B00
3180
60C0
C060
60C0
3180
1B00
0E00
0400
ENDCHAR
STARTCHAR char133
ENCODING 133
SWIDTH 650 0
DWIDTH 13 0
BBX 11 7 1 7
BITMAP
1F00
3180
60C0
C060
60C0
3180
1F00
ENDCHAR
STARTCHAR char134
ENCODING 134
SWIDTH 650 0
DWIDTH 13 0
BBX 11 11 1 5
BITMAP
0400
0E00
0A00
1B00
1100
3180
2080
60C0
4040
C060
8020
ENDCHAR
STARTCHAR char135
ENCODING 135
SWIDTH 650 0
DWIDTH 13 0
BBX 11 11 1 5
BITMAP
FFE0
8060
80A0
8120
8220
8420
8820
9020
A020
C020
FFE0
ENDCHAR
STARTCHAR char136
ENCODING 136
SWIDTH 650 0
DWIDTH 13 0
BBX 11 11 1 4
BITMAP
FFE0
C060
4040
60C0
2080
3180
1100
1B00
0A00
0E00
0400
ENDCHAR
STARTCHAR char137
ENCODING 137
SWIDTH 650 0
DWIDTH 13 0
BBX 10 15 1 3
BITMAP
FFC0
FFC0
00C0
00C0
00C0
00C0
3FC0
3FC0
00C0
00C0
00C0
00C0
00C0
FFC0
FFC0
ENDCHAR
STARTCHAR char138
ENCODING 138
SWIDTH 600 0
DWIDTH 12 0
BBX 11 11 1 5
BITMAP
C060
60C0
3180
1B00
0E00
0400
0E00
1B00
3180
60C0
C060
ENDCHAR
STARTCHAR char139
ENCODING 139
SWIDTH 650 0
DWIDTH 13 0
BBX 13 13 0 5
BITMAP
0F80
3060
4010
4010
8008
8008
8008
8008
8008
4010
4010
3060
0F80
ENDCHAR
STARTCHAR char140
ENCODING 140
SWIDTH 650 0
DWIDTH 13 0
BBX 13 13 0 5
BITMAP
0200
0500
0880
1040
2020
4010
8008
4010
2020
1040
0880
0500
0200
ENDCHAR
STARTCHAR char141
ENCODING 141
SWIDTH 600 0
DWIDTH 12 0
BBX 11 11 1 7
BITMAP
FFE0
FFE0
FFE0
FFE0
FFE0
FFE0
FFE0
FFE0
FFE0
FFE0
FFE0
ENDCHAR
STARTCHAR char142
ENCODING 142
SWIDTH 650 0
DWIDTH 13 0
BBX 10 14 0 5
BITMAP
E1C0
E1C0
E1C0
0C00
1E00
1E00
7380
E1C0
E1C0
E1C0
FFC0
E1C0
E1C0
E1C0
ENDCHAR
STARTCHAR char143
ENCODING 143
SWIDTH 650 0
DWIDTH 13 0
BBX 10 15 0 5
BITMAP
1E00
7380
1E00
1E00
0000
1E00
1E00
7380
E1C0
E1C0
E1C0
FFC0
E1C0
E1C0
E1C0
ENDCHAR
STARTCHAR char144
ENCODING 144
SWIDTH 650 0
DWIDTH 13 0
BBX 10 15 0 5
BITMAP
0E00
1C00
7000
7000
0000
FFC0
FFC0
71C0
7000
7000
7F80
7000
71C0
71C0
FFC0
ENDCHAR
STARTCHAR char145
ENCODING 145
SWIDTH 650 0
DWIDTH 13 0
BBX 10 10 0 5
BITMAP
E380
E380
7DC0
1DC0
1DC0
7FC0
EE00
EE00
EE00
73C0
ENDCHAR
STARTCHAR char146
ENCODING 146
SWIDTH 650 0
DWIDTH 13 0
BBX 10 13 0 5
BITMAP
1FC0
1FC0
7380
E380
E380
E380
FFC0
FFC0
E380
E380
E380
E380
E3C0
ENDCHAR
STARTCHAR char147
ENCODING 147
SWIDTH 650 0
DWIDTH 13 0
BBX 10 14 0 5
BITMAP
0C00
1E00
1E00
7380
0000
0000
7F80
E1C0
E1C0
E1C0
E1C0
E1C0
E1C0
7F80
ENDCHAR
STARTCHAR char148
ENCODING 148
SWIDTH 650 0
DWIDTH 13 0
BBX 10 13 0 5
BITMAP
E1C0
E1C0
E1C0
0000
0000
7F80
E1C0
E1C0
E1C0
E1C0
E1C0
E1C0
7F80
ENDCHAR
STARTCHAR char149
ENCODING 149
SWIDTH 650 0
DWIDTH 13 0
BBX 10 14 0 5
BITMAP
7000
1C00
1C00
0E00
0000
0000
7F80
E1C0
E1C0
E1C0
E1C0
E1C0
E1C0
7F80
ENDCHAR
STARTCHAR char150
ENCODING 150
SWIDTH 650 0
DWIDTH 13 0
BBX 10 14 0 5
BITMAP
1C00
7E00
7E00
E380
0000
0000
E380
E380
E380
E380
E380
E380
E380
7DC0
ENDCHAR
STARTCHAR char151
ENCODING 151
SWIDTH 650 0
DWIDTH 13 0
BBX 10 14 0 5
BITMAP
7000
1C00
1C00
0E00
0000
0000
E380
E380
E380
E380
E380
E380
E380
7DC0
ENDCHAR
STARTCHAR char152
ENCODING 152
SWIDTH 650 0
DWIDTH 13 0
BBX 10 18 0 0
BITMAP
E1C0
E1C0
E1C0
0000
0000
E1C0
E1C0
E1C0
E1C0
E1C0
7FC0
7FC0
01C0
0380
0380
7E00
7E00
7E00
ENDCHAR
STARTCHAR char153
ENCODING 153
SWIDTH 650 0
DWIDTH 13 0
BBX 10 14 0 5
BITMAP
E1C0
E1C0
E1C0
1E00
7380
7380
E1C0
E1C0
E1C0
E1C0
E1C0
7380
7380
1E00
ENDCHAR
STARTCHAR char154
ENCODING 154
SWIDTH 650 0
DWIDTH 13 0
BBX 10 14 0 5
BITMAP
E1C0
E1C0
E1C0
0000
E1C0
E1C0
E1C0
E1C0
E1C0
E1C0
E1C0
E1C0
E1C0
7F80
ENDCHAR
STARTCHAR char155
ENCODING 155
SWIDTH 650 0
DWIDTH 13 0
BBX 9 14 1 5
BITMAP
1C00
1C00
1C00
3F00
E380
E380
E000
E000
E000
E380
3F00
1C00
1C00
1C00
ENDCHAR
STARTCHAR char156
ENCODING 156
SWIDTH 650 0
DWIDTH 13 0
BBX 10 14 0 5
BITMAP
1E00
7380
7380
7180
7000
7000
FC00
7000
7000
7000
7000
F1C0
F1C0
FF80
ENDCHAR
STARTCHAR char157
ENCODING 157
SWIDTH 650 0
DWIDTH 13 0
BBX 9 13 1 5
BITMAP
E380
E380
E380
3F00
3F00
1C00
FF80
FF80
1C00
FF80
1C00
1C00
1C00
ENDCHAR
STARTCHAR char158
ENCODING 158
SWIDTH 650 0
DWIDTH 13 0
BBX 10 14 0 5
BITMAP
FE00
E380
E380
E380
FE00
FE00
E180
E380
E380
EFC0
E380
E380
E380
E1C0
ENDCHAR
STARTCHAR char159
ENCODING 159
SWIDTH 650 0
DWIDTH 13 0
BBX 10 19 0 0
BITMAP
03C0
0000
0000
0E00
0E00
0E00
0E00
7FC0
7FC0
0E00
0E00
0E00
0E00
0E00
EE00
EE00
7C00
7C00
7C00
ENDCHAR
STARTCHAR char160
ENCODING 160
SWIDTH 650 0
DWIDTH 13 0
BBX 10 14 0 5
BITMAP
0E00
1C00
1C00
7000
0000
0000
7E00
0380
0380
7F80
E380
E380
E380
7DC0
ENDCHAR
STARTCHAR char161
ENCODING 161
SWIDTH 650 0
DWIDTH 13 0
BBX 6 14 3 5
BITMAP
1C
70
70
E0
00
00
F0
70
70
70
70
70
70
FC
ENDCHAR
STARTCHAR char162
ENCODING 162
SWIDTH 650 0
DWIDTH 13 0
BBX 10 14 0 5
BITMAP
0E00
1C00
1C00
7000
0000
0000
7F80
E1C0
E1C0
E1C0
E1C0
E1C0
E1C0
7F80
ENDCHAR
STARTCHAR char163
ENCODING 163
SWIDTH 650 0
DWIDTH 13 0
BBX 10 14 0 5
BITMAP
0E00
1C00
1C00
7000
0000
0000
E380
E380
E380
E380
E380
E380
E380
7DC0
ENDCHAR
STARTCHAR char164
ENCODING 164
SWIDTH 650 0
DWIDTH 13 0
BBX 10 13 0 5
BITMAP
7DC0
7DC0
EF80
0000
0000
EF80
71C0
71C0
71C0
71C0
71C0
71C0
71C0
ENDCHAR
STARTCHAR char165
ENCODING 165
SWIDTH 650 0
DWIDTH 13 0
BBX 10 15 0 5
BITMAP
7DC0
EF80
0000
0000
E1C0
F1C0
F1C0
FDC0
FFC0
FFC0
EFC0
E3C0
E1C0
E1C0
E1C0
ENDCHAR
STARTCHAR char166
ENCODING 166
SWIDTH 650 0
DWIDTH 13 0
BBX 9 9 1 10
BITMAP
3F00
E700
E700
E700
3F80
3F80
0000
FF80
FF80
ENDCHAR
STARTCHAR char167
ENCODING 167
SWIDTH 650 0
DWIDTH 13 0
BBX 8 9 1 10
BITMAP
3C
E7
E7
E7
3C
3C
00
FF
FF
ENDCHAR
STARTCHAR char168
ENCODING 168
SWIDTH 650 0
DWIDTH 13 0
BBX 10 13 0 5
BITMAP
1C00
1C00
1C00
0000
0000
1C00
1C00
1C00
7000
E1C0
E1C0
E1C0
7F80
ENDCHAR
STARTCHAR char169
ENCODING 169
SWIDTH 650 0
DWIDTH 13 0
BBX 10 6 0 6
BITMAP
FFC0
FFC0
E000
E000
E000
E000
ENDCHAR
STARTCHAR char170
ENCODING 170
SWIDTH 650 0
DWIDTH 13 0
BBX 10 6 0 6
BITMAP
FFC0
FFC0
01C0
01C0
01C0
01C0
ENDCHAR
STARTCHAR char171
ENCODING 171
SWIDTH 650 0
DWIDTH 13 0
BBX 10 19 0 0
BITMAP
E000
E000
E000
E1C0
E380
E380
EE00
1C00
1C00
7000
EF80
81C0
81C0
0380
0E00
0E00
1FC0
1FC0
1FC0
ENDCHAR
STARTCHAR char172
ENCODING 172
SWIDTH 650 0
DWIDTH 13 0
BBX 10 19 0 0
BITMAP
E000
E000
E000
E1C0
E380
E380
EE00
1C00
1C00
71C0
E3C0
8FC0
8FC0
1FC0
01C0
01C0
01C0
01C0
01C0
ENDCHAR
STARTCHAR char173
ENCODING 173
SWIDTH 650 0
DWIDTH 13 0
BBX 6 13 3 5
BITMAP
70
70
70
00
00
70
70
70
FC
FC
FC
FC
70
ENDCHAR
STARTCHAR char174
ENCODING 174
SWIDTH 650 0
DWIDTH 13 0
BBX 10 7 0 8
BITMAP
1DC0
1DC0
7380
EE00
EE00
7380
1DC0
ENDCHAR
STARTCHAR char175
ENCODING 175
SWIDTH 650 0
DWIDTH 13 0
BBX 10 7 0 8
BITMAP
EE00
EE00
7380
1DC0
1DC0
7380
EE00
ENDCHAR
STARTCHAR char176
ENCODING 176
SWIDTH 650 0
DWIDTH 13 0
BBX 12 19 0 0
BITMAP
0060
0F60
1FC0
39C0
31C0
33C0
33C0
36C0
36C0
36C0
3CC0
3CC0
38C0
39C0
7F80
6F00
6000
FFF0
FFF0
ENDCHAR
STARTCHAR char177
ENCODING 177
SWIDTH 650 0
DWIDTH 13 0
BBX 12 18 0 0
BITMAP
0600
0E00
1E00
3E00
3600
0600
0600
0600
0600
0600
0600
0600
0600
3FC0
3FC0
0000
FFF0
FFF0
ENDCHAR
STARTCHAR char178
ENCODING 178
SWIDTH 650 0
DWIDTH 13 0
BBX 12 18 0 0
BITMAP
0F00
1F80
39C0
30C0
30C0
00C0
01C0
0180
0380
0700
0E00
1C00
3800
3FC0
3FC0
0000
FFF0
FFF0
ENDCHAR
STARTCHAR char179
ENCODING 179
SWIDTH 650 0
DWIDTH 13 0
BBX 12 18 0 0
BITMAP
0F00
1F80
39C0
30C0
00C0
01C0
07C0
0780
01C0
00C0
00C0
30C0
39C0
1F80
0F00
0000
FFF0
FFF0
ENDCHAR
STARTCHAR char180
ENCODING 180
SWIDTH 650 0
DWIDTH 13 0
BBX 12 18 0 0
BITMAP
0380
0780
0F80
0D80
1980
1980
3180
3180
3FC0
3FC0
0180
0180
0180
0180
0180
0000
FFF0
FFF0
ENDCHAR
STARTCHAR char181
ENCODING 181
SWIDTH 650 0
DWIDTH 13 0
BBX 12 18 0 0
BITMAP
3FC0
3FC0
3000
3000
3000
3F00
3F80
01C0
00C0
00C0
00C0
30C0
39C0
1F80
0F00
0000
FFF0
FFF0
ENDCHAR
STARTCHAR char182
ENCODING 182
SWIDTH 650 0
DWIDTH 13 0
BBX 12 18 0 0
BITMAP
1F80
3FC0
70E0
6060
6000
6000
6F80
7FC0
70E0
6060
6060
6060
70E0
3FC0
1F80
0000
FFF0
FFF0
ENDCHAR
STARTCHAR char183
ENCODING 183
SWIDTH 650 0
DWIDTH 13 0
BBX 12 18 0 0
BITMAP
3FC0
3FC0
30C0
00C0
01C0
0380
0300
0300
0600
0600
0600
0C00
0C00
0C00
0C00
0000
FFF0
FFF0
ENDCHAR
STARTCHAR char184
ENCODING 184
SWIDTH 650 0
DWIDTH 13 0
BBX 12 18 0 0
BITMAP
1F80
3FC0
70E0
6060
6060
30C0
3FC0
1F80
30C0
6060
6060
6060
70E0
3FC0
1F80
0000
FFF0
FFF0
ENDCHAR
STARTCHAR char185
ENCODING 185
SWIDTH 650 0
DWIDTH 13 0
BBX 12 18 0 0
BITMAP
1F80
3FC0
70E0
6060
6060
6060
6060
70E0
3FE0
1F60
0060
0060
30E0
3FC0
1F80
0000
FFF0
FFF0
ENDCHAR
STARTCHAR char186
ENCODING 186
SWIDTH 650 0
DWIDTH 13 0
BBX 12 7 0 8
BITMAP
FFF0
FFF0
FFF0
FFF0
FFF0
FFF0
FFF0
ENDCHAR
STARTCHAR char187
ENCODING 187
SWIDTH 650 0
DWIDTH 13 0
BBX 12 16 0 3
BITMAP
7000
7C00
7C00
7E00
FF80
FF80
FFC0
FFF0
FFF0
FFC0
FF80
7E00
7E00
7C00
7000
7000
ENDCHAR
STARTCHAR char188
ENCODING 188
SWIDTH 650 0
DWIDTH 13 0
BBX 10 11 0 9
BITMAP
1DC0
1DC0
1DC0
1DC0
1DC0
1DC0
1DC0
FDC0
01C0
01C0
FFC0
ENDCHAR
STARTCHAR char189
ENCODING 189
SWIDTH 650 0
DWIDTH 13 0
BBX 10 11 0 9
BITMAP
1DC0
1DC0
1DC0
1DC0
1DC0
1DC0
1DC0
1DC0
1DC0
1DC0
FFC0
ENDCHAR
STARTCHAR char190
ENCODING 190
SWIDTH 650 0
DWIDTH 13 0
BBX 7 11 0 9
BITMAP
0E
0E
0E
0E
0E
0E
0E
FE
0E
0E
FE
ENDCHAR
STARTCHAR char191
ENCODING 191
SWIDTH 650 0
DWIDTH 13 0
BBX 7 10 0 0
BITMAP
FE
0E
0E
0E
0E
0E
0E
0E
0E
0E
ENDCHAR
STARTCHAR char192
ENCODING 192
SWIDTH 650 0
DWIDTH 13 0
BBX 3 11 4 9
BITMAP
E0
E0
E0
E0
E0
E0
E0
E0
E0
E0
E0
ENDCHAR
STARTCHAR char193
ENCODING 193
SWIDTH 650 0
DWIDTH 13 0
BBX 12 18 0 0
BITMAP
0600
0600
0600
0F00
0F00
0D00
1980
1980
1980
30C0
3FC0
3FC0
6060
6060
6060
0000
FFF0
FFF0
ENDCHAR
STARTCHAR char194
ENCODING 194
SWIDTH 650 0
DWIDTH 13 0
BBX 12 18 0 0
BITMAP
7F80
7FC0
6060
6060
6060
6060
7FC0
7F80
60C0
6060
6060
6060
6060
7FC0
7F80
0000
FFF0
FFF0
ENDCHAR
STARTCHAR char195
ENCODING 195
SWIDTH 650 0
DWIDTH 13 0
BBX 12 18 0 0
BITMAP
1F80
3FC0
70E0
6060
6000
6000
6000
6000
6000
6000
6000
6060
70E0
3FC0
1F80
0000
FFF0
FFF0
ENDCHAR
STARTCHAR char196
ENCODING 196
SWIDTH 650 0
DWIDTH 13 0
BBX 12 18 0 0
BITMAP
7F80
7FC0
60E0
6060
6060
6060
6060
6060
6060
6060
6060
6060
60E0
7FC0
7F80
0000
FFF0
FFF0
ENDCHAR
STARTCHAR char197
ENCODING 197
SWIDTH 650 0
DWIDTH 13 0
BBX 12 18 0 0
BITMAP
7FE0
7FE0
6000
6000
6000
6000
7F80
7F80
6000
6000
6000
6000
6000
7FE0
7FE0
0000
FFF0
FFF0
ENDCHAR
STARTCHAR char198
ENCODING 198
SWIDTH 650 0
DWIDTH 13 0
BBX 12 18 0 0
BITMAP
7FE0
7FE0
6000
6000
6000
6000
7F80
7F80
6000
6000
6000
6000
6000
6000
6000
0000
FFF0
FFF0
ENDCHAR
STARTCHAR char199
ENCODING 199
SWIDTH 650 0
DWIDTH 13 0
BBX 12 18 0 0
BITMAP
1F80
3FC0
70E0
6060
6000
6000
6000
63E0
63E0
6060
6060
6060
70E0
3FC0
1F80
0000
FFF0
FFF0
ENDCHAR
STARTCHAR char200
ENCODING 200
SWIDTH 650 0
DWIDTH 13 0
BBX 12 18 0 0
BITMAP
6060
6060
6060
6060
6060
6060
6060
7FE0
7FE0
6060
6060
6060
6060
6060
6060
0000
FFF0
FFF0
ENDCHAR
STARTCHAR char201
ENCODING 201
SWIDTH 650 0
DWIDTH 13 0
BBX 12 18 0 0
BITMAP
3FC0
3FC0
0600
0600
0600
0600
0600
0600
0600
0600
0600
0600
0600
3FC0
3FC0
0000
FFF0
FFF0
ENDCHAR
STARTCHAR char202
ENCODING 202
SWIDTH 650 0
DWIDTH 13 0
BBX 12 18 0 0
BITMAP
1FE0
1FE0
0180
0180
0180
0180
0180
0180
0180
0180
0180
6180
7380
3F80
1F00
0000
FFF0
FFF0
ENDCHAR
STARTCHAR char203
ENCODING 203
SWIDTH 650 0
DWIDTH 13 0
BBX 12 18 0 0
BITMAP
6060
60E0
61C0
6380
6700
6E00
7C00
7800
7C00
6E00
6700
6380
61C0
60E0
6060
0000
FFF0
FFF0
ENDCHAR
STARTCHAR char204
ENCODING 204
SWIDTH 650 0
DWIDTH 13 0
BBX 12 18 0 0
BITMAP
3000
3000
3000
3000
3000
3000
3000
3000
3000
3000
3000
3000
3000
3FC0
3FC0
0000
FFF0
FFF0
ENDCHAR
STARTCHAR char205
ENCODING 205
SWIDTH 650 0
DWIDTH 13 0
BBX 12 18 0 0
BITMAP
6060
70E0
79E0
7FE0
6F60
6660
6060
6060
6060
6060
6060
6060
6060
6060
6060
0000
FFF0
FFF0
ENDCHAR
STARTCHAR char206
ENCODING 206
SWIDTH 650 0
DWIDTH 13 0
BBX 12 18 0 0
BITMAP
6060
7060
7060
7860
7860
6C60
6C60
6660
6660
6360
6360
61E0
61E0
60E0
60E0
0000
FFF0
FFF0
ENDCHAR
STARTCHAR char207
ENCODING 207
SWIDTH 650 0
DWIDTH 13 0
BBX 12 18 0 0
BITMAP
1F80
3FC0
70E0
6060
6060
6060
6060
6060
6060
6060
6060
6060
70E0
3FC0
1F80
0000
FFF0
FFF0
ENDCHAR
STARTCHAR char208
ENCODING 208
SWIDTH 650 0
DWIDTH 13 0
BBX 12 18 0 0
BITMAP
7F80
7FC0
60E0
6060
6060
6060
6060
60C0
7FC0
7F00
6000
6000
6000
6000
6000
0000
FFF0
FFF0
ENDCHAR
STARTCHAR char209
ENCODING 209
SWIDTH 650 0
DWIDTH 13 0
BBX 12 18 0 0
BITMAP
1F80
3FC0
70E0
6060
6060
6060
6060
6060
6660
6660
6760
63E0
71C0
3FE0
1F60
0000
FFF0
FFF0
ENDCHAR
STARTCHAR char210
ENCODING 210
SWIDTH 650 0
DWIDTH 13 0
BBX 12 18 0 0
BITMAP
7F80
7FC0
60E0
6060
6060
6060
6060
60C0
7FC0
7F80
6180
60C0
60C0
6060
6060
0000
FFF0
FFF0
ENDCHAR
STARTCHAR char211
ENCODING 211
SWIDTH 650 0
DWIDTH 13 0
BBX 12 18 0 0
BITMAP
1F80
3FC0
70E0
6060
6000
7000
3C00
1F80
03C0
00E0
0060
6060
70E0
3FC0
1F80
0000
FFF0
FFF0
ENDCHAR
STARTCHAR char212
ENCODING 212
SWIDTH 650 0
DWIDTH 13 0
BBX 12 18 0 0
BITMAP
7FE0
7FE0
0600
0600
0600
0600
0600
0600
0600
0600
0600
0600
0600
0600
0600
0000
FFF0
FFF0
ENDCHAR
STARTCHAR char213
ENCODING 213
SWIDTH 650 0
DWIDTH 13 0
BBX 12 18 0 0
BITMAP
6060
6060
6060
6060
6060
6060
6060
6060
6060
6060
6060
6060
30C0
3FC0
1F80
0000
FFF0
FFF0
ENDCHAR
STARTCHAR char214
ENCODING 214
SWIDTH 650 0
DWIDTH 13 0
BBX 12 18 0 0
BITMAP
6060
6060
6060
6060
70E0
30C0
30C0
30C0
39C0
1980
1980
0F00
0F00
0600
0600
0000
FFF0
FFF0
ENDCHAR
STARTCHAR char215
ENCODING 215
SWIDTH 650 0
DWIDTH 13 0
BBX 12 18 0 0
BITMAP
6060
6060
6060
6060
6060
6060
6060
6060
6060
6660
6F60
7FE0
79E0
70E0
6060
0000
FFF0
FFF0
ENDCHAR
STARTCHAR char216
ENCODING 216
SWIDTH 650 0
DWIDTH 13 0
BBX 12 18 0 0
BITMAP
6060
6060
30C0
30C0
1980
1980
0F00
0600
0F00
1980
1980
30C0
30C0
6060
6060
0000
FFF0
FFF0
ENDCHAR
STARTCHAR char217
ENCODING 217
SWIDTH 650 0
DWIDTH 13 0
BBX 12 18 0 0
BITMAP
6060
6060
30C0
30C0
1980
0F00
0F00
0600
0600
0600
0600
0600
0600
0600
0600
0000
FFF0
FFF0
ENDCHAR
STARTCHAR char218
ENCODING 218
SWIDTH 650 0
DWIDTH 13 0
BBX 12 18 0 0
BITMAP
7FE0
7FE0
0060
00C0
0080
0180
0300
0600
0C00
1800
1000
3000
6000
7FE0
7FE0
0000
FFF0
FFF0
ENDCHAR
STARTCHAR char219
ENCODING 219
SWIDTH 650 0
DWIDTH 13 0
BBX 10 13 0 5
BITMAP
7F80
7F80
E1C0
E1C0
E1C0
EFC0
EFC0
EFC0
EFC0
EF80
E000
E000
7F80
ENDCHAR
STARTCHAR char220
ENCODING 220
SWIDTH 650 0
DWIDTH 13 0
BBX 0 0 0 0
BITMAP
ENDCHAR
STARTCHAR char221
ENCODING 221
SWIDTH 650 0
DWIDTH 13 0
BBX 6 20 0 0
BITMAP
FC
FC
FC
FC
FC
FC
FC
FC
FC
FC
FC
FC
FC
FC
FC
FC
FC
FC
FC
FC
ENDCHAR
STARTCHAR char222
ENCODING 222
SWIDTH 650 0
DWIDTH 13 0
BBX 2 20 4 0
BITMAP
C0
C0
C0
C0
C0
C0
C0
C0
C0
C0
C0
C0
C0
C0
C0
C0
C0
C0
C0
C0
ENDCHAR
STARTCHAR char223
ENCODING 223
SWIDTH 650 0
DWIDTH 13 0
BBX 11 11 1 5
BITMAP
0400
0400
0E00
0E00
FFE0
7FC0
3F80
3F80
3B80
3180
4040
ENDCHAR
STARTCHAR char224
ENCODING 224
SWIDTH 650 0
DWIDTH 13 0
BBX 7 13 3 4
BITMAP
10
28
28
44
44
82
82
82
44
44
28
28
10
ENDCHAR
STARTCHAR char225
ENCODING 225
SWIDTH 650 0
DWIDTH 13 0
BBX 11 11 1 5
BITMAP
0E00
3180
4040
4040
8020
8420
8020
4040
4040
3180
0E00
ENDCHAR
STARTCHAR char226
ENCODING 226
SWIDTH 650 0
DWIDTH 13 0
BBX 13 13 0 4
BITMAP
FFF8
8708
98C8
A028
A028
C018
C218
C018
A028
A028
98C8
8708
FFF8
ENDCHAR
STARTCHAR char227
ENCODING 227
SWIDTH 650 0
DWIDTH 13 0
BBX 10 12 0 4
BITMAP
6000
1000
1000
1000
FE00
1200
1200
1200
6200
0200
0200
1FC0
ENDCHAR
STARTCHAR char228
ENCODING 228
SWIDTH 650 0
DWIDTH 13 0
BBX 13 13 0 4
BITMAP
0200
0200
0200
0200
0000
0000
F078
0000
0000
0200
0200
0200
0200
ENDCHAR
STARTCHAR char229
ENCODING 229
SWIDTH 650 0
DWIDTH 13 0
BBX 13 13 0 4
BITMAP
0200
0200
0200
0200
0200
0200
FFF8
0200
0200
0200
0200
0200
0200
ENDCHAR
STARTCHAR char230
ENCODING 230
SWIDTH 650 0
DWIDTH 13 0
BBX 10 12 0 3
BITMAP
71C0
71C0
71C0
71C0
71C0
71C0
7F80
7000
7000
7000
E000
E000
ENDCHAR
STARTCHAR char231
ENCODING 231
SWIDTH 650 0
DWIDTH 13 0
BBX 10 10 0 5
BITMAP
7DC0
7DC0
EF80
0E00
0E00
0E00
0E00
0E00
0E00
0E00
ENDCHAR
STARTCHAR char232
ENCODING 232
SWIDTH 650 0
DWIDTH 13 0
BBX 9 13 1 5
BITMAP
FF80
FF80
1C00
3F00
3F00
E380
E380
E380
E380
3F00
1C00
1C00
FF80
ENDCHAR
STARTCHAR char233
ENCODING 233
SWIDTH 650 0
DWIDTH 13 0
BBX 10 13 0 5
BITMAP
1E00
1E00
7380
E1C0
E1C0
E1C0
FFC0
FFC0
E1C0
E1C0
7380
7380
1E00
ENDCHAR
STARTCHAR char234
ENCODING 234
SWIDTH 650 0
DWIDTH 13 0
BBX 10 13 0 5
BITMAP
1E00
1E00
7380
E1C0
E1C0
E1C0
E1C0
E1C0
7380
7380
7380
7380
F3C0
ENDCHAR
STARTCHAR char235
ENCODING 235
SWIDTH 650 0
DWIDTH 13 0
BBX 9 13 1 5
BITMAP
1F80
1F80
3800
1C00
1C00
0700
3F80
3F80
E380
E380
E380
E380
3F00
ENDCHAR
STARTCHAR char236
ENCODING 236
SWIDTH 650 0
DWIDTH 13 0
BBX 9 5 1 8
BITMAP
FF80
0000
0000
0000
FF80
ENDCHAR
STARTCHAR char237
ENCODING 237
SWIDTH 650 0
DWIDTH 13 0
BBX 13 13 0 4
BITMAP
0F80
3260
4210
4010
8008
8008
E038
8008
8008
4010
4210
3260
0F80
ENDCHAR
STARTCHAR char238
ENCODING 238
SWIDTH 650 0
DWIDTH 13 0
BBX 13 13 0 4
BITMAP
0500
0500
0500
0500
0500
FDF8
0000
FDF8
0500
0500
0500
0500
0500
ENDCHAR
STARTCHAR char239
ENCODING 239
SWIDTH 650 0
DWIDTH 13 0
BBX 13 13 0 4
BITMAP
0200
0200
0200
0200
0200
0200
FFF8
0200
0200
0200
0200
0200
0200
ENDCHAR
STARTCHAR char240
ENCODING 240
SWIDTH 650 0
DWIDTH 13 0
BBX 11 11 1 5
BITMAP
0400
0A00
0A00
1100
1100
2080
2080
4040
4040
8020
8020
ENDCHAR
STARTCHAR char241
ENCODING 241
SWIDTH 650 0
DWIDTH 13 0
BBX 11 11 1 5
BITMAP
0400
0A00
0A00
1100
1100
2080
2080
4440
4040
8420
8420
ENDCHAR
STARTCHAR char242
ENCODING 242
SWIDTH 650 0
DWIDTH 13 0
BBX 5 11 4 5
BITMAP
20
A8
70
A8
20
20
20
20
20
20
20
ENDCHAR
STARTCHAR char243
ENCODING 243
SWIDTH 650 0
DWIDTH 13 0
BBX 5 5 4 8
BITMAP
20
A8
70
A8
20
ENDCHAR
STARTCHAR char244
ENCODING 244
SWIDTH 650 0
DWIDTH 13 0
BBX 11 11 1 5
BITMAP
0400
1F00
2080
4040
4040
C060
4040
4040
2080
1F00
0400
ENDCHAR
STARTCHAR char245
ENCODING 245
SWIDTH 650 0
DWIDTH 13 0
BBX 9 9 2 6
BITMAP
3E00
4100
9C80
A280
A280
A280
9C80
4100
3E00
ENDCHAR
STARTCHAR char246
ENCODING 246
SWIDTH 650 0
DWIDTH 13 0
BBX 11 11 1 5
BITMAP
0400
1F00
2080
4E40
5140
D160
5140
4E40
2080
1F00
0400
ENDCHAR
STARTCHAR char247
ENCODING 247
SWIDTH 650 0
DWIDTH 13 0
BBX 9 9 2 6
BITMAP
3E00
4100
8080
8080
8080
8080
8080
4100
3E00
ENDCHAR
STARTCHAR char248
ENCODING 248
SWIDTH 650 0
DWIDTH 13 0
BBX 11 11 1 5
BITMAP
8420
4440
2480
1F00
1100
F1E0
1100
1F00
2480
4440
8420
ENDCHAR
STARTCHAR char249
ENCODING 249
SWIDTH 650 0
DWIDTH 13 0
BBX 9 9 2 6
BITMAP
3E00
4100
9480
9480
9C80
9480
9480
4100
3E00
ENDCHAR
STARTCHAR char250
ENCODING 250
SWIDTH 650 0
DWIDTH 13 0
BBX 9 9 2 6
BITMAP
0800
0800
0800
0800
FF80
0800
0800
0800
0800
ENDCHAR
STARTCHAR char251
ENCODING 251
SWIDTH 650 0
DWIDTH 13 0
BBX 9 9 2 6
BITMAP
8080
4100
2200
1400
0800
1400
2200
4100
8080
ENDCHAR
STARTCHAR char252
ENCODING 252
SWIDTH 650 0
DWIDTH 13 0
BBX 5 5 4 8
BITMAP
70
F8
F8
F8
70
ENDCHAR
STARTCHAR char253
ENCODING 253
SWIDTH 650 0
DWIDTH 13 0
BBX 9 9 2 6
BITMAP
3E00
4100
9C80
BE80
BE80
BE80
9C80
4100
3E00
ENDCHAR
STARTCHAR char254
ENCODING 254
SWIDTH 650 0
DWIDTH 13 0
BBX 9 9 2 6
BITMAP
FF80
8080
8080
8080
8080
8080
8080
8080
FF80
ENDCHAR
STARTCHAR char255
ENCODING 255
SWIDTH 650 0
DWIDTH 13 0
BBX 0 0 0 0
BITMAP
ENDCHAR
ENDFONT
